<mxfile modified="2024-03-14T10:06:32.849Z" host="app.diagrams.net" agent="Mozilla/5.0 (Macintosh; Intel Mac OS X 10.15; rv:123.0) Gecko/20100101 Firefox/123.0" etag="Vc7WRYg5cPpiNomXS0EW" version="24.0.5" type="github" pages="5">
  <diagram id="Ht1M8jgEwFfnCIfOTk4-" name="Page-1">
    <mxGraphModel dx="1434" dy="794" grid="1" gridSize="10" guides="1" tooltips="1" connect="1" arrows="1" fold="1" page="1" pageScale="1" pageWidth="827" pageHeight="1169" math="0" shadow="0">
      <root>
        <mxCell id="0" />
        <mxCell id="1" parent="0" />
        <mxCell id="jZVaUwOg5UY3L9NAnvdq-71" value="AWS Cloud" style="points=[[0,0],[0.25,0],[0.5,0],[0.75,0],[1,0],[1,0.25],[1,0.5],[1,0.75],[1,1],[0.75,1],[0.5,1],[0.25,1],[0,1],[0,0.75],[0,0.5],[0,0.25]];outlineConnect=0;gradientColor=none;html=1;whiteSpace=wrap;fontSize=12;fontStyle=0;shape=mxgraph.aws4.group;grIcon=mxgraph.aws4.group_aws_cloud_alt;strokeColor=#232F3E;fillColor=none;verticalAlign=top;align=left;spacingLeft=30;fontColor=#232F3E;dashed=0;labelBackgroundColor=none;container=1;pointerEvents=0;collapsible=0;recursiveResize=0;" parent="1" vertex="1">
          <mxGeometry x="263" y="125" width="1097" height="757" as="geometry" />
        </mxCell>
        <mxCell id="jZVaUwOg5UY3L9NAnvdq-109" style="edgeStyle=elbowEdgeStyle;rounded=0;orthogonalLoop=1;jettySize=auto;html=1;endArrow=open;endFill=0;strokeColor=#545B64;strokeWidth=2;fontSize=14;" parent="1" target="jZVaUwOg5UY3L9NAnvdq-72" edge="1">
          <mxGeometry relative="1" as="geometry">
            <mxPoint x="240" y="382" as="sourcePoint" />
            <Array as="points">
              <mxPoint x="339" y="322" />
            </Array>
          </mxGeometry>
        </mxCell>
        <mxCell id="jZVaUwOg5UY3L9NAnvdq-110" style="edgeStyle=elbowEdgeStyle;rounded=0;orthogonalLoop=1;jettySize=auto;html=1;endArrow=open;endFill=0;strokeColor=#545B64;strokeWidth=2;fontSize=14;" parent="1" target="jZVaUwOg5UY3L9NAnvdq-74" edge="1">
          <mxGeometry relative="1" as="geometry">
            <mxPoint x="240" y="418" as="sourcePoint" />
          </mxGeometry>
        </mxCell>
        <mxCell id="jZVaUwOg5UY3L9NAnvdq-111" value="" style="edgeStyle=elbowEdgeStyle;rounded=0;orthogonalLoop=1;jettySize=auto;html=1;endArrow=open;endFill=0;strokeColor=#545B64;strokeWidth=2;fontSize=14;" parent="1" source="jZVaUwOg5UY3L9NAnvdq-74" target="jZVaUwOg5UY3L9NAnvdq-75" edge="1">
          <mxGeometry relative="1" as="geometry" />
        </mxCell>
        <mxCell id="jZVaUwOg5UY3L9NAnvdq-112" value="" style="edgeStyle=elbowEdgeStyle;rounded=0;orthogonalLoop=1;jettySize=auto;html=1;endArrow=open;endFill=0;strokeColor=#545B64;strokeWidth=2;fontSize=14;" parent="1" source="jZVaUwOg5UY3L9NAnvdq-75" target="jZVaUwOg5UY3L9NAnvdq-80" edge="1">
          <mxGeometry relative="1" as="geometry" />
        </mxCell>
        <mxCell id="jZVaUwOg5UY3L9NAnvdq-116" value="" style="edgeStyle=elbowEdgeStyle;rounded=0;orthogonalLoop=1;jettySize=auto;html=1;endArrow=open;endFill=0;strokeColor=#545B64;strokeWidth=2;fontSize=14;" parent="1" source="jZVaUwOg5UY3L9NAnvdq-77" target="jZVaUwOg5UY3L9NAnvdq-76" edge="1">
          <mxGeometry relative="1" as="geometry" />
        </mxCell>
        <mxCell id="jZVaUwOg5UY3L9NAnvdq-117" value="" style="edgeStyle=elbowEdgeStyle;rounded=0;orthogonalLoop=1;jettySize=auto;html=1;endArrow=open;endFill=0;strokeColor=#545B64;strokeWidth=2;fontSize=14;" parent="1" source="jZVaUwOg5UY3L9NAnvdq-77" target="jZVaUwOg5UY3L9NAnvdq-78" edge="1">
          <mxGeometry relative="1" as="geometry" />
        </mxCell>
        <mxCell id="jZVaUwOg5UY3L9NAnvdq-119" value="" style="edgeStyle=elbowEdgeStyle;rounded=0;orthogonalLoop=1;jettySize=auto;html=1;endArrow=open;endFill=0;strokeColor=#545B64;strokeWidth=2;fontSize=14;" parent="1" source="jZVaUwOg5UY3L9NAnvdq-78" target="jZVaUwOg5UY3L9NAnvdq-91" edge="1">
          <mxGeometry relative="1" as="geometry">
            <Array as="points">
              <mxPoint x="1170" y="232" />
            </Array>
          </mxGeometry>
        </mxCell>
        <mxCell id="jZVaUwOg5UY3L9NAnvdq-123" value="" style="edgeStyle=orthogonalEdgeStyle;rounded=0;orthogonalLoop=1;jettySize=auto;html=1;endArrow=open;endFill=0;strokeColor=#545B64;strokeWidth=2;fontSize=14;" parent="1" source="jZVaUwOg5UY3L9NAnvdq-78" target="jZVaUwOg5UY3L9NAnvdq-93" edge="1">
          <mxGeometry relative="1" as="geometry">
            <Array as="points">
              <mxPoint x="1170" y="272" />
              <mxPoint x="1170" y="295" />
            </Array>
          </mxGeometry>
        </mxCell>
        <mxCell id="jZVaUwOg5UY3L9NAnvdq-113" value="" style="edgeStyle=elbowEdgeStyle;rounded=0;orthogonalLoop=1;jettySize=auto;html=1;endArrow=open;endFill=0;strokeColor=#545B64;strokeWidth=2;fontSize=14;" parent="1" source="jZVaUwOg5UY3L9NAnvdq-80" target="jZVaUwOg5UY3L9NAnvdq-81" edge="1">
          <mxGeometry relative="1" as="geometry" />
        </mxCell>
        <mxCell id="jZVaUwOg5UY3L9NAnvdq-114" value="" style="edgeStyle=elbowEdgeStyle;rounded=0;orthogonalLoop=1;jettySize=auto;html=1;endArrow=open;endFill=0;strokeColor=#545B64;strokeWidth=2;fontSize=14;" parent="1" source="jZVaUwOg5UY3L9NAnvdq-81" target="jZVaUwOg5UY3L9NAnvdq-82" edge="1">
          <mxGeometry relative="1" as="geometry" />
        </mxCell>
        <mxCell id="jZVaUwOg5UY3L9NAnvdq-115" value="" style="edgeStyle=elbowEdgeStyle;rounded=0;orthogonalLoop=1;jettySize=auto;html=1;endArrow=open;endFill=0;strokeColor=#545B64;strokeWidth=2;fontSize=14;" parent="1" source="jZVaUwOg5UY3L9NAnvdq-81" target="jZVaUwOg5UY3L9NAnvdq-77" edge="1">
          <mxGeometry relative="1" as="geometry" />
        </mxCell>
        <mxCell id="jZVaUwOg5UY3L9NAnvdq-128" value="" style="edgeStyle=elbowEdgeStyle;rounded=0;orthogonalLoop=1;jettySize=auto;html=1;endArrow=open;endFill=0;strokeColor=#545B64;strokeWidth=2;fontSize=14;" parent="1" source="jZVaUwOg5UY3L9NAnvdq-81" target="jZVaUwOg5UY3L9NAnvdq-89" edge="1">
          <mxGeometry relative="1" as="geometry" />
        </mxCell>
        <mxCell id="jZVaUwOg5UY3L9NAnvdq-126" value="" style="edgeStyle=elbowEdgeStyle;rounded=0;orthogonalLoop=1;jettySize=auto;html=1;endArrow=open;endFill=0;strokeColor=#545B64;strokeWidth=2;fontSize=14;" parent="1" source="jZVaUwOg5UY3L9NAnvdq-82" target="jZVaUwOg5UY3L9NAnvdq-97" edge="1">
          <mxGeometry relative="1" as="geometry">
            <Array as="points">
              <mxPoint x="1079" y="602" />
            </Array>
          </mxGeometry>
        </mxCell>
        <mxCell id="jZVaUwOg5UY3L9NAnvdq-138" value="" style="edgeStyle=elbowEdgeStyle;rounded=0;orthogonalLoop=1;jettySize=auto;html=1;endArrow=open;endFill=0;strokeColor=#545B64;strokeWidth=2;fontSize=14;elbow=vertical;" parent="1" source="jZVaUwOg5UY3L9NAnvdq-84" edge="1">
          <mxGeometry relative="1" as="geometry">
            <mxPoint x="240" y="757" as="targetPoint" />
          </mxGeometry>
        </mxCell>
        <mxCell id="jZVaUwOg5UY3L9NAnvdq-132" value="" style="edgeStyle=elbowEdgeStyle;rounded=0;orthogonalLoop=1;jettySize=auto;html=1;endArrow=open;endFill=0;strokeColor=#545B64;strokeWidth=2;fontSize=14;" parent="1" source="jZVaUwOg5UY3L9NAnvdq-85" target="jZVaUwOg5UY3L9NAnvdq-87" edge="1">
          <mxGeometry relative="1" as="geometry" />
        </mxCell>
        <mxCell id="jZVaUwOg5UY3L9NAnvdq-140" value="" style="edgeStyle=elbowEdgeStyle;rounded=0;orthogonalLoop=1;jettySize=auto;html=1;endArrow=open;endFill=0;strokeColor=#545B64;strokeWidth=2;fontSize=14;" parent="1" edge="1">
          <mxGeometry relative="1" as="geometry">
            <mxPoint x="472" y="756" as="sourcePoint" />
            <mxPoint x="240" y="681" as="targetPoint" />
            <Array as="points">
              <mxPoint x="410" y="721" />
            </Array>
          </mxGeometry>
        </mxCell>
        <mxCell id="jZVaUwOg5UY3L9NAnvdq-160" value="" style="edgeStyle=elbowEdgeStyle;rounded=0;orthogonalLoop=1;jettySize=auto;html=1;endArrow=open;endFill=0;strokeColor=#545B64;strokeWidth=2;fontSize=14;" parent="1" edge="1">
          <mxGeometry relative="1" as="geometry">
            <mxPoint x="472" y="756.5" as="sourcePoint" />
            <mxPoint x="378" y="756.5" as="targetPoint" />
          </mxGeometry>
        </mxCell>
        <mxCell id="jZVaUwOg5UY3L9NAnvdq-136" value="" style="edgeStyle=elbowEdgeStyle;rounded=0;orthogonalLoop=1;jettySize=auto;html=1;endArrow=open;endFill=0;strokeColor=#545B64;strokeWidth=2;fontSize=14;" parent="1" source="jZVaUwOg5UY3L9NAnvdq-87" target="jZVaUwOg5UY3L9NAnvdq-75" edge="1">
          <mxGeometry relative="1" as="geometry" />
        </mxCell>
        <mxCell id="jZVaUwOg5UY3L9NAnvdq-142" value="" style="edgeStyle=elbowEdgeStyle;rounded=0;orthogonalLoop=1;jettySize=auto;html=1;endArrow=open;endFill=0;strokeColor=#545B64;strokeWidth=2;fontSize=14;" parent="1" source="jZVaUwOg5UY3L9NAnvdq-88" target="jZVaUwOg5UY3L9NAnvdq-86" edge="1">
          <mxGeometry relative="1" as="geometry" />
        </mxCell>
        <mxCell id="jZVaUwOg5UY3L9NAnvdq-144" value="" style="edgeStyle=elbowEdgeStyle;rounded=0;orthogonalLoop=1;jettySize=auto;html=1;endArrow=open;endFill=0;strokeColor=#545B64;strokeWidth=2;fontSize=14;" parent="1" source="jZVaUwOg5UY3L9NAnvdq-90" target="jZVaUwOg5UY3L9NAnvdq-88" edge="1">
          <mxGeometry relative="1" as="geometry">
            <mxPoint x="848" y="912" as="targetPoint" />
          </mxGeometry>
        </mxCell>
        <mxCell id="jZVaUwOg5UY3L9NAnvdq-121" value="" style="edgeStyle=elbowEdgeStyle;rounded=0;orthogonalLoop=1;jettySize=auto;html=1;endArrow=open;endFill=0;strokeColor=#545B64;strokeWidth=2;fontSize=14;" parent="1" source="jZVaUwOg5UY3L9NAnvdq-91" target="jZVaUwOg5UY3L9NAnvdq-92" edge="1">
          <mxGeometry relative="1" as="geometry" />
        </mxCell>
        <mxCell id="jZVaUwOg5UY3L9NAnvdq-147" value="" style="edgeStyle=elbowEdgeStyle;rounded=0;orthogonalLoop=1;jettySize=auto;html=1;endArrow=open;endFill=0;strokeColor=#545B64;strokeWidth=2;fontSize=14;" parent="1" source="jZVaUwOg5UY3L9NAnvdq-97" target="jZVaUwOg5UY3L9NAnvdq-98" edge="1">
          <mxGeometry relative="1" as="geometry" />
        </mxCell>
        <mxCell id="jZVaUwOg5UY3L9NAnvdq-155" value="" style="edgeStyle=elbowEdgeStyle;rounded=0;orthogonalLoop=1;jettySize=auto;html=1;endArrow=open;endFill=0;strokeColor=#545B64;strokeWidth=2;fontSize=14;" parent="1" source="jZVaUwOg5UY3L9NAnvdq-97" target="jZVaUwOg5UY3L9NAnvdq-96" edge="1">
          <mxGeometry relative="1" as="geometry">
            <mxPoint x="1390" y="504" as="targetPoint" />
          </mxGeometry>
        </mxCell>
        <mxCell id="jZVaUwOg5UY3L9NAnvdq-146" value="" style="edgeStyle=elbowEdgeStyle;rounded=0;orthogonalLoop=1;jettySize=auto;html=1;endArrow=open;endFill=0;strokeColor=#545B64;strokeWidth=2;fontSize=14;" parent="1" source="jZVaUwOg5UY3L9NAnvdq-98" target="jZVaUwOg5UY3L9NAnvdq-90" edge="1">
          <mxGeometry relative="1" as="geometry" />
        </mxCell>
        <mxCell id="jZVaUwOg5UY3L9NAnvdq-151" value="" style="edgeStyle=elbowEdgeStyle;rounded=0;orthogonalLoop=1;jettySize=auto;html=1;endArrow=open;endFill=0;strokeColor=#545B64;strokeWidth=2;fontSize=14;" parent="1" source="jZVaUwOg5UY3L9NAnvdq-99" target="jZVaUwOg5UY3L9NAnvdq-97" edge="1">
          <mxGeometry relative="1" as="geometry" />
        </mxCell>
        <mxCell id="jZVaUwOg5UY3L9NAnvdq-149" value="" style="rounded=0;orthogonalLoop=1;jettySize=auto;html=1;endArrow=open;endFill=0;strokeColor=#545B64;strokeWidth=2;fontSize=14;" parent="1" source="jZVaUwOg5UY3L9NAnvdq-100" target="jZVaUwOg5UY3L9NAnvdq-97" edge="1">
          <mxGeometry relative="1" as="geometry" />
        </mxCell>
        <mxCell id="jZVaUwOg5UY3L9NAnvdq-124" value="" style="edgeStyle=elbowEdgeStyle;rounded=0;orthogonalLoop=1;jettySize=auto;html=1;endArrow=open;endFill=0;strokeColor=#545B64;strokeWidth=2;fontSize=14;" parent="1" source="jZVaUwOg5UY3L9NAnvdq-78" target="jZVaUwOg5UY3L9NAnvdq-94" edge="1">
          <mxGeometry relative="1" as="geometry">
            <mxPoint x="1108" y="281.5" as="sourcePoint" />
            <mxPoint x="1490.2117381489843" y="345" as="targetPoint" />
            <Array as="points">
              <mxPoint x="1170" y="332" />
            </Array>
          </mxGeometry>
        </mxCell>
        <mxCell id="jZVaUwOg5UY3L9NAnvdq-129" style="edgeStyle=elbowEdgeStyle;rounded=0;orthogonalLoop=1;jettySize=auto;html=1;endArrow=open;endFill=0;strokeColor=#545B64;strokeWidth=2;fontSize=14;exitX=1;exitY=0.5;exitDx=0;exitDy=0;elbow=vertical;" parent="1" source="jZVaUwOg5UY3L9NAnvdq-62" target="jZVaUwOg5UY3L9NAnvdq-83" edge="1">
          <mxGeometry relative="1" as="geometry">
            <mxPoint x="220" y="462" as="sourcePoint" />
            <mxPoint x="482" y="428" as="targetPoint" />
          </mxGeometry>
        </mxCell>
        <mxCell id="jZVaUwOg5UY3L9NAnvdq-130" style="edgeStyle=elbowEdgeStyle;rounded=0;orthogonalLoop=1;jettySize=auto;html=1;endArrow=open;endFill=0;strokeColor=#545B64;strokeWidth=2;fontSize=14;" parent="1" target="jZVaUwOg5UY3L9NAnvdq-85" edge="1">
          <mxGeometry relative="1" as="geometry">
            <mxPoint x="240" y="452" as="sourcePoint" />
            <mxPoint x="482" y="428" as="targetPoint" />
            <Array as="points">
              <mxPoint x="410" y="512" />
            </Array>
          </mxGeometry>
        </mxCell>
        <mxCell id="jZVaUwOg5UY3L9NAnvdq-158" style="edgeStyle=elbowEdgeStyle;rounded=0;orthogonalLoop=1;jettySize=auto;html=1;endArrow=open;endFill=0;strokeColor=#545B64;strokeWidth=2;fontSize=14;" parent="1" target="jZVaUwOg5UY3L9NAnvdq-73" edge="1">
          <mxGeometry relative="1" as="geometry">
            <mxPoint x="240" y="382" as="sourcePoint" />
            <mxPoint x="349" y="290" as="targetPoint" />
            <Array as="points">
              <mxPoint x="430" y="312" />
            </Array>
          </mxGeometry>
        </mxCell>
        <mxCell id="-QjtrjUzRDEMRZ5MF8oH-46" value="" style="rounded=0;whiteSpace=wrap;html=1;fillColor=#EAEDED;fontSize=22;fontColor=#FFFFFF;strokeColor=none;labelBackgroundColor=none;" parent="1" vertex="1">
          <mxGeometry x="1544.5" y="37" width="539" height="1080" as="geometry" />
        </mxCell>
        <mxCell id="-QjtrjUzRDEMRZ5MF8oH-36" value="1" style="rounded=1;whiteSpace=wrap;html=1;fillColor=#007CBD;strokeColor=none;fontColor=#FFFFFF;fontStyle=1;fontSize=22;labelBackgroundColor=none;" parent="1" vertex="1">
          <mxGeometry x="1563" y="49.5" width="40" height="38" as="geometry" />
        </mxCell>
        <mxCell id="-QjtrjUzRDEMRZ5MF8oH-37" value="2" style="rounded=1;whiteSpace=wrap;html=1;fillColor=#007CBD;strokeColor=none;fontColor=#FFFFFF;fontStyle=1;fontSize=22;labelBackgroundColor=none;" parent="1" vertex="1">
          <mxGeometry x="1561.5" y="171.5" width="40" height="38" as="geometry" />
        </mxCell>
        <mxCell id="-QjtrjUzRDEMRZ5MF8oH-38" value="3" style="rounded=1;whiteSpace=wrap;html=1;fillColor=#007CBD;strokeColor=none;fontColor=#FFFFFF;fontStyle=1;fontSize=22;labelBackgroundColor=none;" parent="1" vertex="1">
          <mxGeometry x="1561.5" y="291.5" width="40" height="38" as="geometry" />
        </mxCell>
        <mxCell id="-QjtrjUzRDEMRZ5MF8oH-39" value="4" style="rounded=1;whiteSpace=wrap;html=1;fillColor=#007CBD;strokeColor=none;fontColor=#FFFFFF;fontStyle=1;fontSize=22;labelBackgroundColor=none;" parent="1" vertex="1">
          <mxGeometry x="1561.5" y="405.5" width="40" height="38" as="geometry" />
        </mxCell>
        <mxCell id="-QjtrjUzRDEMRZ5MF8oH-40" value="5" style="rounded=1;whiteSpace=wrap;html=1;fillColor=#007CBD;strokeColor=none;fontColor=#FFFFFF;fontStyle=1;fontSize=22;labelBackgroundColor=none;" parent="1" vertex="1">
          <mxGeometry x="1563" y="522.5" width="40" height="38" as="geometry" />
        </mxCell>
        <mxCell id="-QjtrjUzRDEMRZ5MF8oH-41" value="6" style="rounded=1;whiteSpace=wrap;html=1;fillColor=#007CBD;strokeColor=none;fontColor=#FFFFFF;fontStyle=1;fontSize=22;labelBackgroundColor=none;" parent="1" vertex="1">
          <mxGeometry x="1564" y="637.5" width="40" height="38" as="geometry" />
        </mxCell>
        <mxCell id="-QjtrjUzRDEMRZ5MF8oH-42" value="7" style="rounded=1;whiteSpace=wrap;html=1;fillColor=#007CBD;strokeColor=none;fontColor=#FFFFFF;fontStyle=1;fontSize=22;labelBackgroundColor=none;" parent="1" vertex="1">
          <mxGeometry x="1563.5" y="753.5" width="40" height="38" as="geometry" />
        </mxCell>
        <mxCell id="-QjtrjUzRDEMRZ5MF8oH-43" value="8" style="rounded=1;whiteSpace=wrap;html=1;fillColor=#007CBD;strokeColor=none;fontColor=#FFFFFF;fontStyle=1;fontSize=22;labelBackgroundColor=none;" parent="1" vertex="1">
          <mxGeometry x="1564" y="871.5" width="40" height="38" as="geometry" />
        </mxCell>
        <mxCell id="-QjtrjUzRDEMRZ5MF8oH-44" value="9" style="rounded=1;whiteSpace=wrap;html=1;fillColor=#007CBD;strokeColor=none;fontColor=#FFFFFF;fontStyle=1;fontSize=22;labelBackgroundColor=none;" parent="1" vertex="1">
          <mxGeometry x="1562" y="991.5" width="40" height="38" as="geometry" />
        </mxCell>
        <mxCell id="-QjtrjUzRDEMRZ5MF8oH-47" value="Title text&lt;br&gt;" style="text;html=1;resizable=0;points=[];autosize=1;align=left;verticalAlign=top;spacingTop=-4;fontSize=30;fontStyle=1;labelBackgroundColor=none;" parent="1" vertex="1">
          <mxGeometry x="36.5" y="26.5" width="130" height="40" as="geometry" />
        </mxCell>
        <mxCell id="-QjtrjUzRDEMRZ5MF8oH-48" value="Sub-title text&lt;br style=&quot;font-size: 16px&quot;&gt;" style="text;html=1;resizable=0;points=[];autosize=1;align=left;verticalAlign=top;spacingTop=-4;fontSize=16;labelBackgroundColor=none;" parent="1" vertex="1">
          <mxGeometry x="36.5" y="76.5" width="100" height="20" as="geometry" />
        </mxCell>
        <mxCell id="SCVMTBWpLvtzJIhz15lM-1" value="" style="line;strokeWidth=2;html=1;fontSize=14;labelBackgroundColor=none;" parent="1" vertex="1">
          <mxGeometry x="32.5" y="101.5" width="1060" height="10" as="geometry" />
        </mxCell>
        <mxCell id="SCVMTBWpLvtzJIhz15lM-6" value="&lt;span&gt;Lorem ipsum dolor sit amet, consectetur adipiscing elit, sed do eiusmod tempor incididunt ut labore et dolore magna aliqua. Ut enim ad minim veniam, quis nostrud exercitation ullamco laboris nisi ut aliquip ex ea commodo consequat. Duis aute irure dolor in reprehenderit in voluptate velit esse cillum dolore eu fugiat nulla pariatur. Excepteur sint occaecat cupidatat non proident, sunt in culpa qui officia deserunt mollit anim id est laborum.&lt;/span&gt;&lt;br&gt;" style="text;html=1;align=left;verticalAlign=top;spacingTop=-4;fontSize=14;labelBackgroundColor=none;whiteSpace=wrap;" parent="1" vertex="1">
          <mxGeometry x="1614.5" y="49" width="449" height="118" as="geometry" />
        </mxCell>
        <mxCell id="SCVMTBWpLvtzJIhz15lM-7" value="&lt;span&gt;Lorem ipsum dolor sit amet, consectetur adipiscing elit, sed do eiusmod tempor incididunt ut labore et dolore magna aliqua. Ut enim ad minim veniam, quis nostrud exercitation ullamco laboris nisi ut aliquip ex ea commodo consequat. Duis aute irure dolor in reprehenderit in voluptate velit esse cillum dolore eu fugiat nulla pariatur. Excepteur sint occaecat cupidatat non proident, sunt in culpa qui officia deserunt mollit anim id est laborum.&lt;/span&gt;&lt;br&gt;" style="text;html=1;align=left;verticalAlign=top;spacingTop=-4;fontSize=14;labelBackgroundColor=none;whiteSpace=wrap;" parent="1" vertex="1">
          <mxGeometry x="1613.5" y="172" width="450" height="115" as="geometry" />
        </mxCell>
        <mxCell id="SCVMTBWpLvtzJIhz15lM-9" value="&lt;span&gt;Lorem ipsum dolor sit amet, consectetur adipiscing elit, sed do eiusmod tempor incididunt ut labore et dolore magna aliqua. Ut enim ad minim veniam, quis nostrud exercitation ullamco laboris nisi ut aliquip ex ea commodo consequat. Duis aute irure dolor in reprehenderit in voluptate velit esse cillum dolore eu fugiat nulla pariatur. Excepteur sint occaecat cupidatat non proident, sunt in culpa qui officia deserunt mollit anim id est laborum.&lt;/span&gt;&lt;br&gt;" style="text;html=1;align=left;verticalAlign=top;spacingTop=-4;fontSize=14;labelBackgroundColor=none;whiteSpace=wrap;" parent="1" vertex="1">
          <mxGeometry x="1613.5" y="290" width="450" height="117" as="geometry" />
        </mxCell>
        <mxCell id="SCVMTBWpLvtzJIhz15lM-10" value="&lt;span&gt;Lorem ipsum dolor sit amet, consectetur adipiscing elit, sed do eiusmod tempor incididunt ut labore et dolore magna aliqua. Ut enim ad minim veniam, quis nostrud exercitation ullamco laboris nisi ut aliquip ex ea commodo consequat. Duis aute irure dolor in reprehenderit in voluptate velit esse cillum dolore eu fugiat nulla pariatur. Excepteur sint occaecat cupidatat non proident, sunt in culpa qui officia deserunt mollit anim id est laborum.&lt;/span&gt;&lt;br&gt;" style="text;html=1;align=left;verticalAlign=top;spacingTop=-4;fontSize=14;labelBackgroundColor=none;whiteSpace=wrap;" parent="1" vertex="1">
          <mxGeometry x="1613.5" y="406" width="450" height="121" as="geometry" />
        </mxCell>
        <mxCell id="SCVMTBWpLvtzJIhz15lM-11" value="&lt;span&gt;Lorem ipsum dolor sit amet, consectetur adipiscing elit, sed do eiusmod tempor incididunt ut labore et dolore magna aliqua. Ut enim ad minim veniam, quis nostrud exercitation ullamco laboris nisi ut aliquip ex ea commodo consequat. Duis aute irure dolor in reprehenderit in voluptate velit esse cillum dolore eu fugiat nulla pariatur. Excepteur sint occaecat cupidatat non proident, sunt in culpa qui officia deserunt mollit anim id est laborum.&lt;/span&gt;&lt;br&gt;" style="text;html=1;align=left;verticalAlign=top;spacingTop=-4;fontSize=14;labelBackgroundColor=none;whiteSpace=wrap;" parent="1" vertex="1">
          <mxGeometry x="1614.5" y="523" width="449" height="114" as="geometry" />
        </mxCell>
        <mxCell id="SCVMTBWpLvtzJIhz15lM-12" value="&lt;span&gt;Lorem ipsum dolor sit amet, consectetur adipiscing elit, sed do eiusmod tempor incididunt ut labore et dolore magna aliqua. Ut enim ad minim veniam, quis nostrud exercitation ullamco laboris nisi ut aliquip ex ea commodo consequat. Duis aute irure dolor in reprehenderit in voluptate velit esse cillum dolore eu fugiat nulla pariatur. Excepteur sint occaecat cupidatat non proident, sunt in culpa qui officia deserunt mollit anim id est laborum.&lt;/span&gt;&lt;br&gt;" style="text;html=1;align=left;verticalAlign=top;spacingTop=-4;fontSize=14;labelBackgroundColor=none;whiteSpace=wrap;" parent="1" vertex="1">
          <mxGeometry x="1614.5" y="639" width="450" height="118" as="geometry" />
        </mxCell>
        <mxCell id="SCVMTBWpLvtzJIhz15lM-13" value="&lt;span&gt;Lorem ipsum dolor sit amet, consectetur adipiscing elit, sed do eiusmod tempor incididunt ut labore et dolore magna aliqua. Ut enim ad minim veniam, quis nostrud exercitation ullamco laboris nisi ut aliquip ex ea commodo consequat. Duis aute irure dolor in reprehenderit in voluptate velit esse cillum dolore eu fugiat nulla pariatur. Excepteur sint occaecat cupidatat non proident, sunt in culpa qui officia deserunt mollit anim id est laborum.&lt;/span&gt;&lt;br&gt;" style="text;html=1;align=left;verticalAlign=top;spacingTop=-4;fontSize=14;labelBackgroundColor=none;whiteSpace=wrap;" parent="1" vertex="1">
          <mxGeometry x="1614.5" y="754" width="449" height="113" as="geometry" />
        </mxCell>
        <mxCell id="SCVMTBWpLvtzJIhz15lM-14" value="&lt;span&gt;Lorem ipsum dolor sit amet, consectetur adipiscing elit, sed do eiusmod tempor incididunt ut labore et dolore magna aliqua. Ut enim ad minim veniam, quis nostrud exercitation ullamco laboris nisi ut aliquip ex ea commodo consequat. Duis aute irure dolor in reprehenderit in voluptate velit esse cillum dolore eu fugiat nulla pariatur. Excepteur sint occaecat cupidatat non proident, sunt in culpa qui officia deserunt mollit anim id est laborum.&lt;/span&gt;&lt;br&gt;" style="text;html=1;align=left;verticalAlign=top;spacingTop=-4;fontSize=14;labelBackgroundColor=none;whiteSpace=wrap;" parent="1" vertex="1">
          <mxGeometry x="1614.5" y="873" width="449" height="124" as="geometry" />
        </mxCell>
        <mxCell id="SCVMTBWpLvtzJIhz15lM-15" value="&lt;span&gt;Lorem ipsum dolor sit amet, consectetur adipiscing elit, sed do eiusmod tempor incididunt ut labore et dolore magna aliqua. Ut enim ad minim veniam, quis nostrud exercitation ullamco laboris nisi ut aliquip ex ea commodo consequat. Duis aute irure dolor in reprehenderit in voluptate velit esse cillum dolore eu fugiat nulla pariatur. Excepteur sint occaecat cupidatat non proident, sunt in culpa qui officia deserunt mollit anim id est laborum.&lt;/span&gt;&lt;br&gt;" style="text;html=1;align=left;verticalAlign=top;spacingTop=-4;fontSize=14;labelBackgroundColor=none;whiteSpace=wrap;" parent="1" vertex="1">
          <mxGeometry x="1614.5" y="992" width="449" height="115" as="geometry" />
        </mxCell>
        <mxCell id="jZVaUwOg5UY3L9NAnvdq-59" value="Actors" style="swimlane;fontSize=14;align=center;swimlaneFillColor=#f4f4f4;fillColor=#f4f4f4;startSize=33;container=1;pointerEvents=0;collapsible=0;recursiveResize=0;" parent="1" vertex="1">
          <mxGeometry x="30" y="125" width="210" height="177" as="geometry" />
        </mxCell>
        <mxCell id="jZVaUwOg5UY3L9NAnvdq-60" value="User" style="outlineConnect=0;fontColor=#232F3E;gradientColor=none;fillColor=#232F3E;strokeColor=none;dashed=0;verticalLabelPosition=bottom;verticalAlign=top;align=center;html=1;fontSize=12;fontStyle=0;aspect=fixed;pointerEvents=1;shape=mxgraph.aws4.user;labelBackgroundColor=none;" parent="jZVaUwOg5UY3L9NAnvdq-59" vertex="1">
          <mxGeometry x="16" y="54" width="78" height="78" as="geometry" />
        </mxCell>
        <mxCell id="jZVaUwOg5UY3L9NAnvdq-61" value="Payers" style="outlineConnect=0;fontColor=#232F3E;gradientColor=none;fillColor=#232F3E;strokeColor=none;dashed=0;verticalLabelPosition=bottom;verticalAlign=top;align=center;html=1;fontSize=12;fontStyle=0;aspect=fixed;pointerEvents=1;shape=mxgraph.aws4.corporate_data_center;labelBackgroundColor=none;" parent="jZVaUwOg5UY3L9NAnvdq-59" vertex="1">
          <mxGeometry x="130" y="54" width="53" height="78" as="geometry" />
        </mxCell>
        <mxCell id="jZVaUwOg5UY3L9NAnvdq-62" value="Channels" style="swimlane;fontSize=14;align=center;swimlaneFillColor=#f4f4f4;fillColor=#f4f4f4;startSize=33;container=1;pointerEvents=0;collapsible=0;recursiveResize=0;" parent="1" vertex="1">
          <mxGeometry x="30" y="302" width="210" height="580" as="geometry" />
        </mxCell>
        <mxCell id="jZVaUwOg5UY3L9NAnvdq-65" value="Mobile / Web" style="outlineConnect=0;fontColor=#232F3E;gradientColor=none;strokeColor=none;fillColor=#277116;dashed=0;verticalLabelPosition=bottom;verticalAlign=top;align=center;html=1;fontSize=12;fontStyle=0;shape=mxgraph.aws4.mobile_client;labelBackgroundColor=none;" parent="jZVaUwOg5UY3L9NAnvdq-62" vertex="1">
          <mxGeometry x="67.5" y="57.5" width="53" height="100" as="geometry" />
        </mxCell>
        <mxCell id="jZVaUwOg5UY3L9NAnvdq-69" value="Wearables" style="outlineConnect=0;fontColor=#232F3E;gradientColor=none;fillColor=#277116;strokeColor=none;dashed=0;verticalLabelPosition=bottom;verticalAlign=top;align=center;html=1;fontSize=12;fontStyle=0;aspect=fixed;pointerEvents=1;shape=mxgraph.aws4.medical_emergency;labelBackgroundColor=none;" parent="jZVaUwOg5UY3L9NAnvdq-62" vertex="1">
          <mxGeometry x="63" y="310" width="78" height="78" as="geometry" />
        </mxCell>
        <mxCell id="jZVaUwOg5UY3L9NAnvdq-70" value="Echo" style="outlineConnect=0;fontColor=#232F3E;gradientColor=none;fillColor=#277116;strokeColor=none;dashed=0;verticalLabelPosition=bottom;verticalAlign=top;align=center;html=1;fontSize=12;fontStyle=0;aspect=fixed;pointerEvents=1;shape=mxgraph.aws4.echo;labelBackgroundColor=none;" parent="jZVaUwOg5UY3L9NAnvdq-62" vertex="1">
          <mxGeometry x="84" y="427" width="41" height="78" as="geometry" />
        </mxCell>
        <mxCell id="jZVaUwOg5UY3L9NAnvdq-95" value="API" style="outlineConnect=0;fontColor=#232F3E;gradientColor=none;fillColor=#277116;strokeColor=none;dashed=0;verticalLabelPosition=bottom;verticalAlign=top;align=center;html=1;fontSize=12;fontStyle=0;aspect=fixed;pointerEvents=1;shape=mxgraph.aws4.external_sdk;labelBackgroundColor=none;" parent="jZVaUwOg5UY3L9NAnvdq-62" vertex="1">
          <mxGeometry x="73" y="208.5" width="68" height="78" as="geometry" />
        </mxCell>
        <mxCell id="jZVaUwOg5UY3L9NAnvdq-101" value="1" style="rounded=1;whiteSpace=wrap;html=1;fillColor=#007CBD;strokeColor=none;fontColor=#FFFFFF;fontStyle=1;fontSize=22;labelBackgroundColor=none;" parent="jZVaUwOg5UY3L9NAnvdq-62" vertex="1">
          <mxGeometry x="143" y="61" width="40" height="38" as="geometry" />
        </mxCell>
        <mxCell id="-QjtrjUzRDEMRZ5MF8oH-28" value="4" style="rounded=1;whiteSpace=wrap;html=1;fillColor=#007CBD;strokeColor=none;fontColor=#FFFFFF;fontStyle=1;fontSize=22;labelBackgroundColor=none;" parent="1" vertex="1">
          <mxGeometry x="559" y="352" width="40" height="38" as="geometry" />
        </mxCell>
        <mxCell id="jZVaUwOg5UY3L9NAnvdq-72" value="Amazon Lex" style="outlineConnect=0;fontColor=#232F3E;gradientColor=#4AB29A;gradientDirection=north;fillColor=#116D5B;strokeColor=#ffffff;dashed=0;verticalLabelPosition=bottom;verticalAlign=top;align=center;html=1;fontSize=12;fontStyle=0;aspect=fixed;shape=mxgraph.aws4.resourceIcon;resIcon=mxgraph.aws4.lex;labelBackgroundColor=#ffffff;spacingTop=8;" parent="1" vertex="1">
          <mxGeometry x="300" y="202" width="78" height="78" as="geometry" />
        </mxCell>
        <mxCell id="jZVaUwOg5UY3L9NAnvdq-73" value="Amazon S3" style="outlineConnect=0;fontColor=#232F3E;gradientColor=#60A337;gradientDirection=north;fillColor=#277116;strokeColor=#ffffff;dashed=0;verticalLabelPosition=bottom;verticalAlign=top;align=center;html=1;fontSize=12;fontStyle=0;aspect=fixed;shape=mxgraph.aws4.resourceIcon;resIcon=mxgraph.aws4.s3;labelBackgroundColor=none;" parent="1" vertex="1">
          <mxGeometry x="476" y="179" width="78" height="78" as="geometry" />
        </mxCell>
        <mxCell id="jZVaUwOg5UY3L9NAnvdq-74" value="Amazon API&lt;br&gt;Gateway&lt;br&gt;" style="outlineConnect=0;fontColor=#232F3E;gradientColor=#945DF2;gradientDirection=north;fillColor=#5A30B5;strokeColor=#ffffff;dashed=0;verticalLabelPosition=bottom;verticalAlign=top;align=center;html=1;fontSize=12;fontStyle=0;aspect=fixed;shape=mxgraph.aws4.resourceIcon;resIcon=mxgraph.aws4.api_gateway;labelBackgroundColor=none;" parent="1" vertex="1">
          <mxGeometry x="472" y="378.99999999999994" width="78" height="78" as="geometry" />
        </mxCell>
        <mxCell id="jZVaUwOg5UY3L9NAnvdq-75" value="Amazon Kinesis&lt;br&gt;Data Streams&lt;br&gt;" style="outlineConnect=0;fontColor=#232F3E;gradientColor=#945DF2;gradientDirection=north;fillColor=#5A30B5;strokeColor=#ffffff;dashed=0;verticalLabelPosition=bottom;verticalAlign=top;align=center;html=1;fontSize=12;fontStyle=0;aspect=fixed;shape=mxgraph.aws4.resourceIcon;resIcon=mxgraph.aws4.kinesis_data_streams;labelBackgroundColor=#ffffff;spacingTop=5;" parent="1" vertex="1">
          <mxGeometry x="609" y="378.99999999999994" width="78" height="78" as="geometry" />
        </mxCell>
        <mxCell id="jZVaUwOg5UY3L9NAnvdq-76" value="Amazon&lt;br&gt;ElasticSearch&lt;br&gt;" style="outlineConnect=0;fontColor=#232F3E;gradientColor=#945DF2;gradientDirection=north;fillColor=#5A30B5;strokeColor=#ffffff;dashed=0;verticalLabelPosition=bottom;verticalAlign=top;align=center;html=1;fontSize=12;fontStyle=0;aspect=fixed;shape=mxgraph.aws4.resourceIcon;resIcon=mxgraph.aws4.elasticsearch_service;labelBackgroundColor=none;" parent="1" vertex="1">
          <mxGeometry x="744" y="232.5" width="78" height="78" as="geometry" />
        </mxCell>
        <mxCell id="jZVaUwOg5UY3L9NAnvdq-77" value="DynamoDB&lt;br&gt;Streams&lt;br&gt;" style="outlineConnect=0;fontColor=#232F3E;gradientColor=#4D72F3;gradientDirection=north;fillColor=#3334B9;strokeColor=#ffffff;dashed=0;verticalLabelPosition=bottom;verticalAlign=top;align=center;html=1;fontSize=12;fontStyle=0;aspect=fixed;shape=mxgraph.aws4.resourceIcon;resIcon=mxgraph.aws4.dynamodb;labelBackgroundColor=#ffffff;spacingTop=6;" parent="1" vertex="1">
          <mxGeometry x="923.0000000000002" y="232.5" width="78" height="78" as="geometry" />
        </mxCell>
        <mxCell id="jZVaUwOg5UY3L9NAnvdq-78" value="Subscriber&lt;br&gt;Processor&lt;br&gt;" style="outlineConnect=0;fontColor=#232F3E;gradientColor=none;fillColor=#D05C17;strokeColor=none;dashed=0;verticalLabelPosition=bottom;verticalAlign=top;align=center;html=1;fontSize=12;fontStyle=0;aspect=fixed;pointerEvents=1;shape=mxgraph.aws4.lambda_function;labelBackgroundColor=none;" parent="1" vertex="1">
          <mxGeometry x="1040" y="232.5" width="78" height="78" as="geometry" />
        </mxCell>
        <mxCell id="jZVaUwOg5UY3L9NAnvdq-80" value="Request&lt;br&gt;Processor&lt;br&gt;" style="outlineConnect=0;fontColor=#232F3E;gradientColor=none;fillColor=#D05C17;strokeColor=none;dashed=0;verticalLabelPosition=bottom;verticalAlign=top;align=center;html=1;fontSize=12;fontStyle=0;aspect=fixed;pointerEvents=1;shape=mxgraph.aws4.lambda_function;labelBackgroundColor=#ffffff;spacingTop=7;" parent="1" vertex="1">
          <mxGeometry x="744" y="378.9999999999999" width="78" height="78" as="geometry" />
        </mxCell>
        <mxCell id="jZVaUwOg5UY3L9NAnvdq-81" value="Amazon&lt;br&gt;DynamoDB&lt;br&gt;" style="outlineConnect=0;fontColor=#232F3E;gradientColor=#4D72F3;gradientDirection=north;fillColor=#3334B9;strokeColor=#ffffff;dashed=0;verticalLabelPosition=bottom;verticalAlign=top;align=center;html=1;fontSize=12;fontStyle=0;aspect=fixed;shape=mxgraph.aws4.resourceIcon;resIcon=mxgraph.aws4.dynamodb;labelBackgroundColor=#ffffff;" parent="1" vertex="1">
          <mxGeometry x="923.0000000000003" y="378.99999999999994" width="78" height="78" as="geometry" />
        </mxCell>
        <mxCell id="jZVaUwOg5UY3L9NAnvdq-82" value="ERL Function" style="outlineConnect=0;fontColor=#232F3E;gradientColor=none;fillColor=#D05C17;strokeColor=none;dashed=0;verticalLabelPosition=bottom;verticalAlign=top;align=center;html=1;fontSize=12;fontStyle=0;aspect=fixed;pointerEvents=1;shape=mxgraph.aws4.lambda_function;labelBackgroundColor=#ffffff;spacingTop=2;" parent="1" vertex="1">
          <mxGeometry x="1040" y="378.99999999999994" width="78" height="78" as="geometry" />
        </mxCell>
        <mxCell id="jZVaUwOg5UY3L9NAnvdq-83" value="Amazon Cognito" style="outlineConnect=0;fontColor=#232F3E;gradientColor=#F54749;gradientDirection=north;fillColor=#C7131F;strokeColor=#ffffff;dashed=0;verticalLabelPosition=bottom;verticalAlign=top;align=center;html=1;fontSize=12;fontStyle=0;aspect=fixed;shape=mxgraph.aws4.resourceIcon;resIcon=mxgraph.aws4.cognito;labelBackgroundColor=none;" parent="1" vertex="1">
          <mxGeometry x="300" y="556" width="78" height="78" as="geometry" />
        </mxCell>
        <mxCell id="jZVaUwOg5UY3L9NAnvdq-84" value="Amazon Polly" style="outlineConnect=0;fontColor=#232F3E;gradientColor=#4AB29A;gradientDirection=north;fillColor=#116D5B;strokeColor=#ffffff;dashed=0;verticalLabelPosition=bottom;verticalAlign=top;align=center;html=1;fontSize=12;fontStyle=0;aspect=fixed;shape=mxgraph.aws4.resourceIcon;resIcon=mxgraph.aws4.polly;labelBackgroundColor=none;" parent="1" vertex="1">
          <mxGeometry x="300" y="717.5" width="78" height="78" as="geometry" />
        </mxCell>
        <mxCell id="jZVaUwOg5UY3L9NAnvdq-85" value="AWS IoT Core" style="outlineConnect=0;fontColor=#232F3E;gradientColor=#60A337;gradientDirection=north;fillColor=#277116;strokeColor=#ffffff;dashed=0;verticalLabelPosition=bottom;verticalAlign=top;align=center;html=1;fontSize=12;fontStyle=0;aspect=fixed;shape=mxgraph.aws4.resourceIcon;resIcon=mxgraph.aws4.iot_core;labelBackgroundColor=none;" parent="1" vertex="1">
          <mxGeometry x="472" y="560.5" width="78" height="78" as="geometry" />
        </mxCell>
        <mxCell id="jZVaUwOg5UY3L9NAnvdq-86" value="Amazon Pinpoint" style="outlineConnect=0;fontColor=#232F3E;gradientColor=#F54749;gradientDirection=north;fillColor=#C7131F;strokeColor=#ffffff;dashed=0;verticalLabelPosition=bottom;verticalAlign=top;align=center;html=1;fontSize=12;fontStyle=0;aspect=fixed;shape=mxgraph.aws4.resourceIcon;resIcon=mxgraph.aws4.pinpoint;labelBackgroundColor=none;" parent="1" vertex="1">
          <mxGeometry x="472" y="717.4999999999999" width="78" height="78" as="geometry" />
        </mxCell>
        <mxCell id="jZVaUwOg5UY3L9NAnvdq-87" value="IoT Rule" style="outlineConnect=0;fontColor=#232F3E;gradientColor=none;fillColor=#277116;strokeColor=none;dashed=0;verticalLabelPosition=bottom;verticalAlign=top;align=center;html=1;fontSize=12;fontStyle=0;aspect=fixed;pointerEvents=1;shape=mxgraph.aws4.rule;labelBackgroundColor=none;" parent="1" vertex="1">
          <mxGeometry x="625" y="560.5" width="46" height="78" as="geometry" />
        </mxCell>
        <mxCell id="jZVaUwOg5UY3L9NAnvdq-88" value="Users&lt;br&gt;" style="outlineConnect=0;fontColor=#232F3E;gradientColor=none;fillColor=#232F3E;strokeColor=none;dashed=0;verticalLabelPosition=bottom;verticalAlign=top;align=center;html=1;fontSize=12;fontStyle=0;aspect=fixed;pointerEvents=1;shape=mxgraph.aws4.users;labelBackgroundColor=none;" parent="1" vertex="1">
          <mxGeometry x="687" y="717.4999999999999" width="78" height="78" as="geometry" />
        </mxCell>
        <mxCell id="jZVaUwOg5UY3L9NAnvdq-89" value="Amazon&lt;br&gt;Comprehend&lt;br&gt;Medical&lt;br&gt;" style="outlineConnect=0;fontColor=#232F3E;gradientColor=#4AB29A;gradientDirection=north;fillColor=#116D5B;strokeColor=#ffffff;dashed=0;verticalLabelPosition=bottom;verticalAlign=top;align=center;html=1;fontSize=12;fontStyle=0;aspect=fixed;shape=mxgraph.aws4.resourceIcon;resIcon=mxgraph.aws4.comprehend;labelBackgroundColor=none;" parent="1" vertex="1">
          <mxGeometry x="923.0000000000001" y="556" width="78" height="78" as="geometry" />
        </mxCell>
        <mxCell id="jZVaUwOg5UY3L9NAnvdq-90" value="Amazon Personalize" style="outlineConnect=0;fontColor=#232F3E;gradientColor=#4AB29A;gradientDirection=north;fillColor=#116D5B;strokeColor=#ffffff;dashed=0;verticalLabelPosition=bottom;verticalAlign=top;align=center;html=1;fontSize=12;fontStyle=0;aspect=fixed;shape=mxgraph.aws4.resourceIcon;resIcon=mxgraph.aws4.personalize;labelBackgroundColor=none;" parent="1" vertex="1">
          <mxGeometry x="923.0000000000001" y="717.5" width="78" height="78" as="geometry" />
        </mxCell>
        <mxCell id="jZVaUwOg5UY3L9NAnvdq-91" value="Amazon&lt;br&gt;Pinpoint&lt;br&gt;" style="outlineConnect=0;fontColor=#232F3E;gradientColor=#F54749;gradientDirection=north;fillColor=#C7131F;strokeColor=#ffffff;dashed=0;verticalLabelPosition=bottom;verticalAlign=top;align=center;html=1;fontSize=12;fontStyle=0;aspect=fixed;shape=mxgraph.aws4.resourceIcon;resIcon=mxgraph.aws4.pinpoint;labelBackgroundColor=none;" parent="1" vertex="1">
          <mxGeometry x="1210.5" y="147.5" width="78" height="78" as="geometry" />
        </mxCell>
        <mxCell id="jZVaUwOg5UY3L9NAnvdq-92" value="User" style="outlineConnect=0;fontColor=#232F3E;gradientColor=none;fillColor=#232F3E;strokeColor=none;dashed=0;verticalLabelPosition=bottom;verticalAlign=top;align=center;html=1;fontSize=12;fontStyle=0;aspect=fixed;pointerEvents=1;shape=mxgraph.aws4.user;labelBackgroundColor=none;" parent="1" vertex="1">
          <mxGeometry x="1431.5000000000002" y="147.5" width="78" height="78" as="geometry" />
        </mxCell>
        <mxCell id="jZVaUwOg5UY3L9NAnvdq-93" value="API" style="outlineConnect=0;fontColor=#232F3E;gradientColor=none;fillColor=#232F3E;strokeColor=none;dashed=0;verticalLabelPosition=bottom;verticalAlign=top;align=center;html=1;fontSize=12;fontStyle=0;aspect=fixed;pointerEvents=1;shape=mxgraph.aws4.external_sdk;labelBackgroundColor=none;" parent="1" vertex="1">
          <mxGeometry x="1436.5000000000002" y="256" width="68" height="78" as="geometry" />
        </mxCell>
        <mxCell id="jZVaUwOg5UY3L9NAnvdq-94" value="API&lt;br&gt;" style="outlineConnect=0;fontColor=#232F3E;gradientColor=none;fillColor=#232F3E;strokeColor=none;dashed=0;verticalLabelPosition=bottom;verticalAlign=top;align=center;html=1;fontSize=12;fontStyle=0;aspect=fixed;pointerEvents=1;shape=mxgraph.aws4.external_sdk;labelBackgroundColor=none;" parent="1" vertex="1">
          <mxGeometry x="1436.5000000000002" y="359.5" width="68" height="78" as="geometry" />
        </mxCell>
        <mxCell id="jZVaUwOg5UY3L9NAnvdq-97" value="AWS Lake&lt;br&gt;Formation&lt;br&gt;" style="outlineConnect=0;fontColor=#232F3E;gradientColor=#945DF2;gradientDirection=north;fillColor=#5A30B5;strokeColor=#ffffff;dashed=0;verticalLabelPosition=bottom;verticalAlign=top;align=center;html=1;fontSize=12;fontStyle=0;aspect=fixed;shape=mxgraph.aws4.resourceIcon;resIcon=mxgraph.aws4.lake_formation;labelBackgroundColor=#ffffff;" parent="1" vertex="1">
          <mxGeometry x="1210" y="556" width="78" height="78" as="geometry" />
        </mxCell>
        <mxCell id="jZVaUwOg5UY3L9NAnvdq-98" value="Execute Model" style="outlineConnect=0;fontColor=#232F3E;gradientColor=none;fillColor=#D05C17;strokeColor=none;dashed=0;verticalLabelPosition=bottom;verticalAlign=top;align=center;html=1;fontSize=12;fontStyle=0;aspect=fixed;pointerEvents=1;shape=mxgraph.aws4.lambda_function;labelBackgroundColor=none;" parent="1" vertex="1">
          <mxGeometry x="1210" y="717.4999999999999" width="78" height="78" as="geometry" />
        </mxCell>
        <mxCell id="jZVaUwOg5UY3L9NAnvdq-99" value="Related &quot;Casual&quot;&lt;br&gt;Data&lt;br&gt;" style="outlineConnect=0;fontColor=#232F3E;gradientColor=none;fillColor=#BE0917;strokeColor=none;dashed=0;verticalLabelPosition=bottom;verticalAlign=top;align=center;html=1;fontSize=12;fontStyle=0;aspect=fixed;pointerEvents=1;shape=mxgraph.aws4.fleet_management;labelBackgroundColor=none;" parent="1" vertex="1">
          <mxGeometry x="1431" y="556" width="78" height="78" as="geometry" />
        </mxCell>
        <mxCell id="jZVaUwOg5UY3L9NAnvdq-100" value="Research&lt;br&gt;" style="outlineConnect=0;fontColor=#232F3E;gradientColor=none;fillColor=#116D5B;strokeColor=none;dashed=0;verticalLabelPosition=bottom;verticalAlign=top;align=center;html=1;fontSize=12;fontStyle=0;aspect=fixed;pointerEvents=1;shape=mxgraph.aws4.sagemaker_notebook;labelBackgroundColor=none;" parent="1" vertex="1">
          <mxGeometry x="1436" y="738" width="68" height="78" as="geometry" />
        </mxCell>
        <mxCell id="jZVaUwOg5UY3L9NAnvdq-102" value="2" style="rounded=1;whiteSpace=wrap;html=1;fillColor=#007CBD;strokeColor=none;fontColor=#FFFFFF;fontStyle=1;fontSize=22;labelBackgroundColor=none;" parent="1" vertex="1">
          <mxGeometry x="319" y="507.5" width="40" height="38" as="geometry" />
        </mxCell>
        <mxCell id="jZVaUwOg5UY3L9NAnvdq-103" value="3" style="rounded=1;whiteSpace=wrap;html=1;fillColor=#007CBD;strokeColor=none;fontColor=#FFFFFF;fontStyle=1;fontSize=22;labelBackgroundColor=none;" parent="1" vertex="1">
          <mxGeometry x="491" y="674.5" width="40" height="38" as="geometry" />
        </mxCell>
        <mxCell id="jZVaUwOg5UY3L9NAnvdq-104" value="5" style="rounded=1;whiteSpace=wrap;html=1;fillColor=#007CBD;strokeColor=none;fontColor=#FFFFFF;fontStyle=1;fontSize=22;labelBackgroundColor=none;" parent="1" vertex="1">
          <mxGeometry x="880" y="218" width="40" height="38" as="geometry" />
        </mxCell>
        <mxCell id="jZVaUwOg5UY3L9NAnvdq-105" value="6" style="rounded=1;whiteSpace=wrap;html=1;fillColor=#007CBD;strokeColor=none;fontColor=#FFFFFF;fontStyle=1;fontSize=22;labelBackgroundColor=none;" parent="1" vertex="1">
          <mxGeometry x="880" y="363" width="40" height="38" as="geometry" />
        </mxCell>
        <mxCell id="jZVaUwOg5UY3L9NAnvdq-106" value="7" style="rounded=1;whiteSpace=wrap;html=1;fillColor=#007CBD;strokeColor=none;fontColor=#FFFFFF;fontStyle=1;fontSize=22;labelBackgroundColor=none;" parent="1" vertex="1">
          <mxGeometry x="880" y="539" width="40" height="38" as="geometry" />
        </mxCell>
        <mxCell id="jZVaUwOg5UY3L9NAnvdq-107" value="8" style="rounded=1;whiteSpace=wrap;html=1;fillColor=#007CBD;strokeColor=none;fontColor=#FFFFFF;fontStyle=1;fontSize=22;labelBackgroundColor=none;" parent="1" vertex="1">
          <mxGeometry x="880" y="695" width="40" height="38" as="geometry" />
        </mxCell>
        <mxCell id="jZVaUwOg5UY3L9NAnvdq-108" value="9" style="rounded=1;whiteSpace=wrap;html=1;fillColor=#007CBD;strokeColor=none;fontColor=#FFFFFF;fontStyle=1;fontSize=22;labelBackgroundColor=none;" parent="1" vertex="1">
          <mxGeometry x="1130" y="525" width="40" height="38" as="geometry" />
        </mxCell>
        <mxCell id="jZVaUwOg5UY3L9NAnvdq-96" value="Amazon&lt;br&gt;SageMaker&lt;br&gt;" style="outlineConnect=0;fontColor=#232F3E;gradientColor=#4AB29A;gradientDirection=north;fillColor=#116D5B;strokeColor=#ffffff;dashed=0;verticalLabelPosition=bottom;verticalAlign=top;align=center;html=1;fontSize=12;fontStyle=0;aspect=fixed;shape=mxgraph.aws4.resourceIcon;resIcon=mxgraph.aws4.sagemaker;labelBackgroundColor=#ffffff;spacingTop=7;" parent="1" vertex="1">
          <mxGeometry x="1210" y="416.49999999999983" width="78" height="78" as="geometry" />
        </mxCell>
        <mxCell id="jZVaUwOg5UY3L9NAnvdq-163" value="" style="group" parent="1" vertex="1" connectable="0">
          <mxGeometry x="252.50000000000006" y="743.5" width="21" height="26" as="geometry" />
        </mxCell>
        <mxCell id="jZVaUwOg5UY3L9NAnvdq-162" value="" style="rounded=0;whiteSpace=wrap;html=1;labelBackgroundColor=#ffffff;fontSize=14;align=center;strokeColor=none;" parent="jZVaUwOg5UY3L9NAnvdq-163" vertex="1">
          <mxGeometry width="21" height="26" as="geometry" />
        </mxCell>
        <mxCell id="jZVaUwOg5UY3L9NAnvdq-161" value="" style="outlineConnect=0;fontColor=#232F3E;gradientColor=none;fillColor=#B3B3B3;strokeColor=none;dashed=0;verticalLabelPosition=bottom;verticalAlign=top;align=center;html=1;fontSize=12;fontStyle=0;aspect=fixed;pointerEvents=1;shape=mxgraph.aws4.encrypted_data;labelBackgroundColor=#ffffff;" parent="jZVaUwOg5UY3L9NAnvdq-163" vertex="1">
          <mxGeometry width="21" height="26" as="geometry" />
        </mxCell>
        <mxCell id="jZVaUwOg5UY3L9NAnvdq-164" value="" style="group" parent="1" vertex="1" connectable="0">
          <mxGeometry x="253.00000000000006" y="667.5" width="21" height="26" as="geometry" />
        </mxCell>
        <mxCell id="jZVaUwOg5UY3L9NAnvdq-165" value="" style="rounded=0;whiteSpace=wrap;html=1;labelBackgroundColor=#ffffff;fontSize=14;align=center;strokeColor=none;" parent="jZVaUwOg5UY3L9NAnvdq-164" vertex="1">
          <mxGeometry width="21" height="26" as="geometry" />
        </mxCell>
        <mxCell id="jZVaUwOg5UY3L9NAnvdq-166" value="" style="outlineConnect=0;fontColor=#232F3E;gradientColor=none;fillColor=#B3B3B3;strokeColor=none;dashed=0;verticalLabelPosition=bottom;verticalAlign=top;align=center;html=1;fontSize=12;fontStyle=0;aspect=fixed;pointerEvents=1;shape=mxgraph.aws4.encrypted_data;labelBackgroundColor=#ffffff;" parent="jZVaUwOg5UY3L9NAnvdq-164" vertex="1">
          <mxGeometry width="21" height="26" as="geometry" />
        </mxCell>
        <mxCell id="jZVaUwOg5UY3L9NAnvdq-167" value="" style="group" parent="1" vertex="1" connectable="0">
          <mxGeometry x="253.00000000000006" y="579" width="21" height="26" as="geometry" />
        </mxCell>
        <mxCell id="jZVaUwOg5UY3L9NAnvdq-168" value="" style="rounded=0;whiteSpace=wrap;html=1;labelBackgroundColor=#ffffff;fontSize=14;align=center;strokeColor=none;" parent="jZVaUwOg5UY3L9NAnvdq-167" vertex="1">
          <mxGeometry width="21" height="26" as="geometry" />
        </mxCell>
        <mxCell id="jZVaUwOg5UY3L9NAnvdq-169" value="" style="outlineConnect=0;fontColor=#232F3E;gradientColor=none;fillColor=#B3B3B3;strokeColor=none;dashed=0;verticalLabelPosition=bottom;verticalAlign=top;align=center;html=1;fontSize=12;fontStyle=0;aspect=fixed;pointerEvents=1;shape=mxgraph.aws4.encrypted_data;labelBackgroundColor=#ffffff;" parent="jZVaUwOg5UY3L9NAnvdq-167" vertex="1">
          <mxGeometry width="21" height="26" as="geometry" />
        </mxCell>
        <mxCell id="jZVaUwOg5UY3L9NAnvdq-170" value="" style="group" parent="1" vertex="1" connectable="0">
          <mxGeometry x="253.00000000000006" y="439.5" width="21" height="26" as="geometry" />
        </mxCell>
        <mxCell id="jZVaUwOg5UY3L9NAnvdq-171" value="" style="rounded=0;whiteSpace=wrap;html=1;labelBackgroundColor=#ffffff;fontSize=14;align=center;strokeColor=none;" parent="jZVaUwOg5UY3L9NAnvdq-170" vertex="1">
          <mxGeometry width="21" height="26" as="geometry" />
        </mxCell>
        <mxCell id="jZVaUwOg5UY3L9NAnvdq-172" value="" style="outlineConnect=0;fontColor=#232F3E;gradientColor=none;fillColor=#B3B3B3;strokeColor=none;dashed=0;verticalLabelPosition=bottom;verticalAlign=top;align=center;html=1;fontSize=12;fontStyle=0;aspect=fixed;pointerEvents=1;shape=mxgraph.aws4.encrypted_data;labelBackgroundColor=#ffffff;" parent="jZVaUwOg5UY3L9NAnvdq-170" vertex="1">
          <mxGeometry width="21" height="26" as="geometry" />
        </mxCell>
        <mxCell id="jZVaUwOg5UY3L9NAnvdq-173" value="" style="group" parent="1" vertex="1" connectable="0">
          <mxGeometry x="252.50000000000006" y="404.5" width="21" height="26" as="geometry" />
        </mxCell>
        <mxCell id="jZVaUwOg5UY3L9NAnvdq-174" value="" style="rounded=0;whiteSpace=wrap;html=1;labelBackgroundColor=#ffffff;fontSize=14;align=center;strokeColor=none;" parent="jZVaUwOg5UY3L9NAnvdq-173" vertex="1">
          <mxGeometry width="21" height="26" as="geometry" />
        </mxCell>
        <mxCell id="jZVaUwOg5UY3L9NAnvdq-175" value="" style="outlineConnect=0;fontColor=#232F3E;gradientColor=none;fillColor=#B3B3B3;strokeColor=none;dashed=0;verticalLabelPosition=bottom;verticalAlign=top;align=center;html=1;fontSize=12;fontStyle=0;aspect=fixed;pointerEvents=1;shape=mxgraph.aws4.encrypted_data;labelBackgroundColor=#ffffff;" parent="jZVaUwOg5UY3L9NAnvdq-173" vertex="1">
          <mxGeometry width="21" height="26" as="geometry" />
        </mxCell>
        <mxCell id="jZVaUwOg5UY3L9NAnvdq-176" value="" style="group" parent="1" vertex="1" connectable="0">
          <mxGeometry x="253.00000000000006" y="369" width="21" height="26" as="geometry" />
        </mxCell>
        <mxCell id="jZVaUwOg5UY3L9NAnvdq-177" value="" style="rounded=0;whiteSpace=wrap;html=1;labelBackgroundColor=#ffffff;fontSize=14;align=center;strokeColor=none;" parent="jZVaUwOg5UY3L9NAnvdq-176" vertex="1">
          <mxGeometry width="21" height="26" as="geometry" />
        </mxCell>
        <mxCell id="jZVaUwOg5UY3L9NAnvdq-178" value="" style="outlineConnect=0;fontColor=#232F3E;gradientColor=none;fillColor=#B3B3B3;strokeColor=none;dashed=0;verticalLabelPosition=bottom;verticalAlign=top;align=center;html=1;fontSize=12;fontStyle=0;aspect=fixed;pointerEvents=1;shape=mxgraph.aws4.encrypted_data;labelBackgroundColor=#ffffff;" parent="jZVaUwOg5UY3L9NAnvdq-176" vertex="1">
          <mxGeometry width="21" height="26" as="geometry" />
        </mxCell>
        <mxCell id="jZVaUwOg5UY3L9NAnvdq-179" value="" style="group" parent="1" vertex="1" connectable="0">
          <mxGeometry x="1350" y="384.5" width="21" height="26" as="geometry" />
        </mxCell>
        <mxCell id="jZVaUwOg5UY3L9NAnvdq-180" value="" style="rounded=0;whiteSpace=wrap;html=1;labelBackgroundColor=#ffffff;fontSize=14;align=center;strokeColor=none;" parent="jZVaUwOg5UY3L9NAnvdq-179" vertex="1">
          <mxGeometry width="21" height="26" as="geometry" />
        </mxCell>
        <mxCell id="jZVaUwOg5UY3L9NAnvdq-181" value="" style="outlineConnect=0;fontColor=#232F3E;gradientColor=none;fillColor=#B3B3B3;strokeColor=none;dashed=0;verticalLabelPosition=bottom;verticalAlign=top;align=center;html=1;fontSize=12;fontStyle=0;aspect=fixed;pointerEvents=1;shape=mxgraph.aws4.encrypted_data;labelBackgroundColor=#ffffff;" parent="jZVaUwOg5UY3L9NAnvdq-179" vertex="1">
          <mxGeometry width="21" height="26" as="geometry" />
        </mxCell>
        <mxCell id="jZVaUwOg5UY3L9NAnvdq-182" value="" style="group" parent="1" vertex="1" connectable="0">
          <mxGeometry x="1350" y="282" width="21" height="26" as="geometry" />
        </mxCell>
        <mxCell id="jZVaUwOg5UY3L9NAnvdq-183" value="" style="rounded=0;whiteSpace=wrap;html=1;labelBackgroundColor=#ffffff;fontSize=14;align=center;strokeColor=none;" parent="jZVaUwOg5UY3L9NAnvdq-182" vertex="1">
          <mxGeometry width="21" height="26" as="geometry" />
        </mxCell>
        <mxCell id="jZVaUwOg5UY3L9NAnvdq-184" value="" style="outlineConnect=0;fontColor=#232F3E;gradientColor=none;fillColor=#B3B3B3;strokeColor=none;dashed=0;verticalLabelPosition=bottom;verticalAlign=top;align=center;html=1;fontSize=12;fontStyle=0;aspect=fixed;pointerEvents=1;shape=mxgraph.aws4.encrypted_data;labelBackgroundColor=#ffffff;" parent="jZVaUwOg5UY3L9NAnvdq-182" vertex="1">
          <mxGeometry width="21" height="26" as="geometry" />
        </mxCell>
        <mxCell id="jZVaUwOg5UY3L9NAnvdq-185" value="" style="group" parent="1" vertex="1" connectable="0">
          <mxGeometry x="1350" y="581.5" width="21" height="26" as="geometry" />
        </mxCell>
        <mxCell id="jZVaUwOg5UY3L9NAnvdq-186" value="" style="rounded=0;whiteSpace=wrap;html=1;labelBackgroundColor=#ffffff;fontSize=14;align=center;strokeColor=none;" parent="jZVaUwOg5UY3L9NAnvdq-185" vertex="1">
          <mxGeometry width="21" height="26" as="geometry" />
        </mxCell>
        <mxCell id="jZVaUwOg5UY3L9NAnvdq-187" value="" style="outlineConnect=0;fontColor=#232F3E;gradientColor=none;fillColor=#B3B3B3;strokeColor=none;dashed=0;verticalLabelPosition=bottom;verticalAlign=top;align=center;html=1;fontSize=12;fontStyle=0;aspect=fixed;pointerEvents=1;shape=mxgraph.aws4.encrypted_data;labelBackgroundColor=#ffffff;" parent="jZVaUwOg5UY3L9NAnvdq-185" vertex="1">
          <mxGeometry width="21" height="26" as="geometry" />
        </mxCell>
        <mxCell id="jZVaUwOg5UY3L9NAnvdq-188" value="" style="group" parent="1" vertex="1" connectable="0">
          <mxGeometry x="1350" y="672" width="21" height="26" as="geometry" />
        </mxCell>
        <mxCell id="jZVaUwOg5UY3L9NAnvdq-189" value="" style="rounded=0;whiteSpace=wrap;html=1;labelBackgroundColor=#ffffff;fontSize=14;align=center;strokeColor=none;" parent="jZVaUwOg5UY3L9NAnvdq-188" vertex="1">
          <mxGeometry width="21" height="26" as="geometry" />
        </mxCell>
        <mxCell id="jZVaUwOg5UY3L9NAnvdq-190" value="" style="outlineConnect=0;fontColor=#232F3E;gradientColor=none;fillColor=#B3B3B3;strokeColor=none;dashed=0;verticalLabelPosition=bottom;verticalAlign=top;align=center;html=1;fontSize=12;fontStyle=0;aspect=fixed;pointerEvents=1;shape=mxgraph.aws4.encrypted_data;labelBackgroundColor=#ffffff;" parent="jZVaUwOg5UY3L9NAnvdq-188" vertex="1">
          <mxGeometry width="21" height="26" as="geometry" />
        </mxCell>
      </root>
    </mxGraphModel>
  </diagram>
  <diagram id="npSKJ2QDpRNJgcF3uRxx" name="第 2 页">
    <mxGraphModel dx="1912" dy="1059" grid="1" gridSize="10" guides="1" tooltips="1" connect="1" arrows="1" fold="1" page="1" pageScale="1" pageWidth="827" pageHeight="1169" math="0" shadow="0">
      <root>
        <mxCell id="0" />
        <mxCell id="1" parent="0" />
        <mxCell id="1_Kst7Vh3topi2hGVKQY-14" value="" style="whiteSpace=wrap;html=1;" vertex="1" parent="1">
          <mxGeometry y="100" width="1400" height="800" as="geometry" />
        </mxCell>
        <mxCell id="JtzMRFU-hP4KAS5oevsU-1" value="AWS Cloud" style="points=[[0,0],[0.25,0],[0.5,0],[0.75,0],[1,0],[1,0.25],[1,0.5],[1,0.75],[1,1],[0.75,1],[0.5,1],[0.25,1],[0,1],[0,0.75],[0,0.5],[0,0.25]];outlineConnect=0;gradientColor=none;html=1;whiteSpace=wrap;fontSize=12;fontStyle=0;shape=mxgraph.aws4.group;grIcon=mxgraph.aws4.group_aws_cloud_alt;strokeColor=#232F3E;fillColor=none;verticalAlign=top;align=left;spacingLeft=30;fontColor=#232F3E;dashed=0;labelBackgroundColor=none;container=1;pointerEvents=0;collapsible=0;recursiveResize=0;" vertex="1" parent="1">
          <mxGeometry x="620" y="125" width="740" height="757" as="geometry" />
        </mxCell>
        <mxCell id="JtzMRFU-hP4KAS5oevsU-65" value="Amazon S3" style="outlineConnect=0;fontColor=#232F3E;gradientColor=#60A337;gradientDirection=north;fillColor=#277116;strokeColor=#ffffff;dashed=0;verticalLabelPosition=bottom;verticalAlign=top;align=center;html=1;fontSize=12;fontStyle=0;aspect=fixed;shape=mxgraph.aws4.resourceIcon;resIcon=mxgraph.aws4.s3;labelBackgroundColor=none;" vertex="1" parent="JtzMRFU-hP4KAS5oevsU-1">
          <mxGeometry x="380" y="342" width="78" height="78" as="geometry" />
        </mxCell>
        <mxCell id="JtzMRFU-hP4KAS5oevsU-66" value="Amazon API&lt;br&gt;Gateway&lt;br&gt;" style="outlineConnect=0;fontColor=#232F3E;gradientColor=#945DF2;gradientDirection=north;fillColor=#5A30B5;strokeColor=#ffffff;dashed=0;verticalLabelPosition=bottom;verticalAlign=top;align=center;html=1;fontSize=12;fontStyle=0;aspect=fixed;shape=mxgraph.aws4.resourceIcon;resIcon=mxgraph.aws4.api_gateway;labelBackgroundColor=none;" vertex="1" parent="JtzMRFU-hP4KAS5oevsU-1">
          <mxGeometry x="169" y="164.99999999999994" width="78" height="78" as="geometry" />
        </mxCell>
        <mxCell id="JtzMRFU-hP4KAS5oevsU-71" value="Request&lt;br&gt;Processor&lt;br&gt;" style="outlineConnect=0;fontColor=#232F3E;gradientColor=none;fillColor=#D05C17;strokeColor=none;dashed=0;verticalLabelPosition=bottom;verticalAlign=top;align=center;html=1;fontSize=12;fontStyle=0;aspect=fixed;pointerEvents=1;shape=mxgraph.aws4.lambda_function;labelBackgroundColor=#ffffff;spacingTop=7;" vertex="1" parent="JtzMRFU-hP4KAS5oevsU-1">
          <mxGeometry x="360" y="164.9999999999999" width="78" height="78" as="geometry" />
        </mxCell>
        <mxCell id="mjp-6h4JfasuZJpi6aN--1" style="edgeStyle=orthogonalEdgeStyle;rounded=0;orthogonalLoop=1;jettySize=auto;html=1;strokeWidth=2;" edge="1" parent="JtzMRFU-hP4KAS5oevsU-1" source="JtzMRFU-hP4KAS5oevsU-66" target="JtzMRFU-hP4KAS5oevsU-71">
          <mxGeometry relative="1" as="geometry" />
        </mxCell>
        <mxCell id="JtzMRFU-hP4KAS5oevsU-10" value="" style="edgeStyle=elbowEdgeStyle;rounded=0;orthogonalLoop=1;jettySize=auto;html=1;endArrow=open;endFill=0;strokeColor=#545B64;strokeWidth=2;fontSize=14;entryX=1;entryY=0.25;entryDx=0;entryDy=0;entryPerimeter=0;" edge="1" parent="JtzMRFU-hP4KAS5oevsU-1" source="JtzMRFU-hP4KAS5oevsU-71" target="1_Kst7Vh3topi2hGVKQY-6">
          <mxGeometry relative="1" as="geometry">
            <mxPoint x="535.0000000000005" y="204" as="targetPoint" />
            <Array as="points">
              <mxPoint x="530" y="395" />
            </Array>
          </mxGeometry>
        </mxCell>
        <mxCell id="1_Kst7Vh3topi2hGVKQY-5" value="" style="edgeStyle=orthogonalEdgeStyle;rounded=0;orthogonalLoop=1;jettySize=auto;html=1;" edge="1" parent="JtzMRFU-hP4KAS5oevsU-1" target="1_Kst7Vh3topi2hGVKQY-3">
          <mxGeometry relative="1" as="geometry">
            <mxPoint x="460" y="585" as="sourcePoint" />
          </mxGeometry>
        </mxCell>
        <mxCell id="mjp-6h4JfasuZJpi6aN--16" value="" style="sketch=0;points=[[0,0,0],[0.25,0,0],[0.5,0,0],[0.75,0,0],[1,0,0],[0,1,0],[0.25,1,0],[0.5,1,0],[0.75,1,0],[1,1,0],[0,0.25,0],[0,0.5,0],[0,0.75,0],[1,0.25,0],[1,0.5,0],[1,0.75,0]];outlineConnect=0;fontColor=#232F3E;fillColor=#8C4FFF;strokeColor=#ffffff;dashed=0;verticalLabelPosition=bottom;verticalAlign=top;align=center;html=1;fontSize=12;fontStyle=0;aspect=fixed;shape=mxgraph.aws4.resourceIcon;resIcon=mxgraph.aws4.route_53;" vertex="1" parent="JtzMRFU-hP4KAS5oevsU-1">
          <mxGeometry x="50" y="55" width="78" height="78" as="geometry" />
        </mxCell>
        <mxCell id="mjp-6h4JfasuZJpi6aN--23" value="" style="edgeStyle=orthogonalEdgeStyle;rounded=0;orthogonalLoop=1;jettySize=auto;html=1;strokeWidth=2;" edge="1" parent="JtzMRFU-hP4KAS5oevsU-1" source="mjp-6h4JfasuZJpi6aN--20" target="JtzMRFU-hP4KAS5oevsU-65">
          <mxGeometry relative="1" as="geometry">
            <mxPoint x="207" y="344" as="targetPoint" />
          </mxGeometry>
        </mxCell>
        <mxCell id="mjp-6h4JfasuZJpi6aN--20" value="" style="sketch=0;points=[[0,0,0],[0.25,0,0],[0.5,0,0],[0.75,0,0],[1,0,0],[0,1,0],[0.25,1,0],[0.5,1,0],[0.75,1,0],[1,1,0],[0,0.25,0],[0,0.5,0],[0,0.75,0],[1,0.25,0],[1,0.5,0],[1,0.75,0]];outlineConnect=0;fontColor=#232F3E;fillColor=#8C4FFF;strokeColor=#ffffff;dashed=0;verticalLabelPosition=bottom;verticalAlign=top;align=center;html=1;fontSize=12;fontStyle=0;aspect=fixed;shape=mxgraph.aws4.resourceIcon;resIcon=mxgraph.aws4.cloudfront;" vertex="1" parent="JtzMRFU-hP4KAS5oevsU-1">
          <mxGeometry x="169" y="342" width="78" height="78" as="geometry" />
        </mxCell>
        <mxCell id="mjp-6h4JfasuZJpi6aN--24" value="" style="edgeStyle=elbowEdgeStyle;rounded=0;orthogonalLoop=1;jettySize=auto;html=1;endArrow=open;endFill=0;strokeColor=#545B64;strokeWidth=2;fontSize=14;" edge="1" parent="JtzMRFU-hP4KAS5oevsU-1">
          <mxGeometry relative="1" as="geometry">
            <mxPoint x="420" y="432" as="targetPoint" />
            <mxPoint x="420" y="547" as="sourcePoint" />
          </mxGeometry>
        </mxCell>
        <mxCell id="mjp-6h4JfasuZJpi6aN--30" value="CloudFront" style="text;strokeColor=none;align=center;fillColor=none;html=1;verticalAlign=middle;whiteSpace=wrap;rounded=0;" vertex="1" parent="JtzMRFU-hP4KAS5oevsU-1">
          <mxGeometry x="178" y="420" width="60" height="30" as="geometry" />
        </mxCell>
        <mxCell id="mjp-6h4JfasuZJpi6aN--34" value="" style="edgeStyle=orthogonalEdgeStyle;rounded=0;orthogonalLoop=1;jettySize=auto;html=1;dashed=1;dashPattern=8 8;entryX=0;entryY=0.25;entryDx=0;entryDy=0;entryPerimeter=0;exitX=0.5;exitY=1;exitDx=0;exitDy=0;exitPerimeter=0;" edge="1" parent="JtzMRFU-hP4KAS5oevsU-1" source="mjp-6h4JfasuZJpi6aN--16" target="mjp-6h4JfasuZJpi6aN--20">
          <mxGeometry relative="1" as="geometry">
            <mxPoint x="99" y="143" as="sourcePoint" />
            <mxPoint x="-175" y="225" as="targetPoint" />
            <Array as="points">
              <mxPoint x="89" y="143" />
              <mxPoint x="90" y="143" />
              <mxPoint x="90" y="362" />
            </Array>
          </mxGeometry>
        </mxCell>
        <mxCell id="88PnvLKRWRdYdQc_pk0I-2" value="2" style="rounded=1;whiteSpace=wrap;html=1;fillColor=#007CBD;strokeColor=none;fontColor=#FFFFFF;fontStyle=1;fontSize=22;labelBackgroundColor=none;" vertex="1" parent="JtzMRFU-hP4KAS5oevsU-1">
          <mxGeometry x="40" y="235" width="40" height="38" as="geometry" />
        </mxCell>
        <mxCell id="88PnvLKRWRdYdQc_pk0I-11" value="" style="edgeStyle=elbowEdgeStyle;rounded=0;orthogonalLoop=1;jettySize=auto;html=1;endArrow=open;endFill=0;strokeColor=#545B64;strokeWidth=2;fontSize=14;" edge="1" parent="JtzMRFU-hP4KAS5oevsU-1">
          <mxGeometry relative="1" as="geometry">
            <mxPoint x="380" y="396" as="targetPoint" />
            <mxPoint x="-146" y="450" as="sourcePoint" />
            <Array as="points">
              <mxPoint x="300" y="435" />
            </Array>
          </mxGeometry>
        </mxCell>
        <mxCell id="88PnvLKRWRdYdQc_pk0I-14" value="海外用户" style="text;strokeColor=none;align=center;fillColor=none;html=1;verticalAlign=middle;whiteSpace=wrap;rounded=0;" vertex="1" parent="JtzMRFU-hP4KAS5oevsU-1">
          <mxGeometry x="90" y="235" width="60" height="30" as="geometry" />
        </mxCell>
        <mxCell id="mjp-6h4JfasuZJpi6aN--21" value="" style="edgeStyle=elbowEdgeStyle;rounded=0;orthogonalLoop=1;jettySize=auto;html=1;endArrow=open;endFill=0;strokeColor=#545B64;strokeWidth=2;fontSize=14;entryX=0;entryY=0.5;entryDx=0;entryDy=0;entryPerimeter=0;exitX=1.014;exitY=0.15;exitDx=0;exitDy=0;exitPerimeter=0;" edge="1" parent="JtzMRFU-hP4KAS5oevsU-1" source="JtzMRFU-hP4KAS5oevsU-57">
          <mxGeometry relative="1" as="geometry">
            <mxPoint x="-380" y="255" as="sourcePoint" />
            <mxPoint x="169" y="379" as="targetPoint" />
            <Array as="points">
              <mxPoint x="20" y="245" />
            </Array>
          </mxGeometry>
        </mxCell>
        <mxCell id="1_Kst7Vh3topi2hGVKQY-12" value="" style="group" vertex="1" connectable="0" parent="JtzMRFU-hP4KAS5oevsU-1">
          <mxGeometry x="570" y="546" width="78" height="108" as="geometry" />
        </mxCell>
        <mxCell id="1_Kst7Vh3topi2hGVKQY-3" value="" style="sketch=0;points=[[0,0,0],[0.25,0,0],[0.5,0,0],[0.75,0,0],[1,0,0],[0,1,0],[0.25,1,0],[0.5,1,0],[0.75,1,0],[1,1,0],[0,0.25,0],[0,0.5,0],[0,0.75,0],[1,0.25,0],[1,0.5,0],[1,0.75,0]];outlineConnect=0;fontColor=#232F3E;fillColor=#01A88D;strokeColor=#ffffff;dashed=0;verticalLabelPosition=bottom;verticalAlign=top;align=center;html=1;fontSize=12;fontStyle=0;aspect=fixed;shape=mxgraph.aws4.resourceIcon;resIcon=mxgraph.aws4.bedrock;" vertex="1" parent="1_Kst7Vh3topi2hGVKQY-12">
          <mxGeometry width="78" height="78" as="geometry" />
        </mxCell>
        <mxCell id="1_Kst7Vh3topi2hGVKQY-11" value="Bedrock" style="text;strokeColor=none;align=center;fillColor=none;html=1;verticalAlign=middle;whiteSpace=wrap;rounded=0;" vertex="1" parent="1_Kst7Vh3topi2hGVKQY-12">
          <mxGeometry x="9" y="78" width="60" height="30" as="geometry" />
        </mxCell>
        <mxCell id="1_Kst7Vh3topi2hGVKQY-13" value="" style="group" vertex="1" connectable="0" parent="JtzMRFU-hP4KAS5oevsU-1">
          <mxGeometry x="380" y="546" width="78" height="108" as="geometry" />
        </mxCell>
        <mxCell id="1_Kst7Vh3topi2hGVKQY-6" value="" style="sketch=0;points=[[0,0,0],[0.25,0,0],[0.5,0,0],[0.75,0,0],[1,0,0],[0,1,0],[0.25,1,0],[0.5,1,0],[0.75,1,0],[1,1,0],[0,0.25,0],[0,0.5,0],[0,0.75,0],[1,0.25,0],[1,0.5,0],[1,0.75,0]];outlineConnect=0;fontColor=#232F3E;fillColor=#ED7100;strokeColor=#ffffff;dashed=0;verticalLabelPosition=bottom;verticalAlign=top;align=center;html=1;fontSize=12;fontStyle=0;aspect=fixed;shape=mxgraph.aws4.resourceIcon;resIcon=mxgraph.aws4.ec2;" vertex="1" parent="1_Kst7Vh3topi2hGVKQY-13">
          <mxGeometry width="78" height="78" as="geometry" />
        </mxCell>
        <mxCell id="1_Kst7Vh3topi2hGVKQY-9" value="EC2" style="text;strokeColor=none;align=center;fillColor=none;html=1;verticalAlign=middle;whiteSpace=wrap;rounded=0;" vertex="1" parent="1_Kst7Vh3topi2hGVKQY-13">
          <mxGeometry x="9" y="78" width="60" height="30" as="geometry" />
        </mxCell>
        <mxCell id="JtzMRFU-hP4KAS5oevsU-21" value="" style="edgeStyle=elbowEdgeStyle;rounded=0;orthogonalLoop=1;jettySize=auto;html=1;endArrow=open;endFill=0;strokeColor=#545B64;strokeWidth=2;fontSize=14;" edge="1" parent="1">
          <mxGeometry relative="1" as="geometry">
            <mxPoint x="330" y="710" as="targetPoint" />
            <mxPoint x="240" y="710" as="sourcePoint" />
          </mxGeometry>
        </mxCell>
        <mxCell id="JtzMRFU-hP4KAS5oevsU-57" value="" style="swimlane;fontSize=14;align=center;swimlaneFillColor=#f4f4f4;fillColor=#f4f4f4;startSize=255;container=1;pointerEvents=0;collapsible=0;recursiveResize=0;" vertex="1" parent="1">
          <mxGeometry x="30" y="125" width="210" height="752" as="geometry" />
        </mxCell>
        <mxCell id="88PnvLKRWRdYdQc_pk0I-4" value="" style="sketch=0;outlineConnect=0;fontColor=#232F3E;gradientColor=none;fillColor=#232F3D;strokeColor=none;dashed=0;verticalLabelPosition=bottom;verticalAlign=top;align=center;html=1;fontSize=12;fontStyle=0;aspect=fixed;pointerEvents=1;shape=mxgraph.aws4.authenticated_user;" vertex="1" parent="JtzMRFU-hP4KAS5oevsU-57">
          <mxGeometry x="62" y="550" width="78" height="78" as="geometry" />
        </mxCell>
        <mxCell id="88PnvLKRWRdYdQc_pk0I-5" value="管理员" style="text;strokeColor=none;align=center;fillColor=none;html=1;verticalAlign=middle;whiteSpace=wrap;rounded=0;" vertex="1" parent="JtzMRFU-hP4KAS5oevsU-57">
          <mxGeometry x="67.5" y="628" width="60" height="30" as="geometry" />
        </mxCell>
        <mxCell id="88PnvLKRWRdYdQc_pk0I-6" value="" style="sketch=0;outlineConnect=0;fontColor=#232F3E;gradientColor=none;fillColor=#232F3D;strokeColor=none;dashed=0;verticalLabelPosition=bottom;verticalAlign=top;align=center;html=1;fontSize=12;fontStyle=0;aspect=fixed;pointerEvents=1;shape=mxgraph.aws4.user;" vertex="1" parent="JtzMRFU-hP4KAS5oevsU-57">
          <mxGeometry x="62" y="75" width="78" height="78" as="geometry" />
        </mxCell>
        <mxCell id="88PnvLKRWRdYdQc_pk0I-7" value="海外用户" style="text;strokeColor=none;align=center;fillColor=none;html=1;verticalAlign=middle;whiteSpace=wrap;rounded=0;" vertex="1" parent="JtzMRFU-hP4KAS5oevsU-57">
          <mxGeometry x="71" y="153" width="60" height="30" as="geometry" />
        </mxCell>
        <mxCell id="88PnvLKRWRdYdQc_pk0I-8" value="" style="sketch=0;outlineConnect=0;fontColor=#232F3E;gradientColor=none;fillColor=#232F3D;strokeColor=none;dashed=0;verticalLabelPosition=bottom;verticalAlign=top;align=center;html=1;fontSize=12;fontStyle=0;aspect=fixed;pointerEvents=1;shape=mxgraph.aws4.user;" vertex="1" parent="JtzMRFU-hP4KAS5oevsU-57">
          <mxGeometry x="66" y="390" width="78" height="78" as="geometry" />
        </mxCell>
        <mxCell id="88PnvLKRWRdYdQc_pk0I-9" value="&lt;div&gt;国内用户&lt;/div&gt;&lt;div&gt;C端&lt;br&gt;&lt;/div&gt;" style="text;strokeColor=none;align=center;fillColor=none;html=1;verticalAlign=middle;whiteSpace=wrap;rounded=0;" vertex="1" parent="JtzMRFU-hP4KAS5oevsU-57">
          <mxGeometry x="78" y="470" width="60" height="30" as="geometry" />
        </mxCell>
        <mxCell id="mjp-6h4JfasuZJpi6aN--8" value="加速" style="swimlane;fontSize=14;align=center;swimlaneFillColor=#f4f4f4;fillColor=#f4f4f4;startSize=30;container=1;pointerEvents=0;collapsible=0;recursiveResize=0;" vertex="1" parent="1">
          <mxGeometry x="330" y="380" width="210" height="497" as="geometry" />
        </mxCell>
        <mxCell id="itJcY8VhUUT_hoTMXmkq-1" value="国内PoP 点" style="text;strokeColor=none;align=center;fillColor=none;html=1;verticalAlign=middle;whiteSpace=wrap;rounded=0;fontSize=14;" vertex="1" parent="mjp-6h4JfasuZJpi6aN--8">
          <mxGeometry x="69" y="245" width="81" height="30" as="geometry" />
        </mxCell>
        <mxCell id="MwKKHwnTDz8nszaRvlPf-1" value="" style="sketch=0;outlineConnect=0;fontColor=#232F3E;gradientColor=none;fillColor=#232F3D;strokeColor=none;dashed=0;verticalLabelPosition=bottom;verticalAlign=top;align=center;html=1;fontSize=12;fontStyle=0;aspect=fixed;pointerEvents=1;shape=mxgraph.aws4.internet_alt2;" vertex="1" parent="mjp-6h4JfasuZJpi6aN--8">
          <mxGeometry x="66" y="166" width="78" height="78" as="geometry" />
        </mxCell>
        <mxCell id="mjp-6h4JfasuZJpi6aN--13" value="" style="edgeStyle=elbowEdgeStyle;rounded=0;orthogonalLoop=1;jettySize=auto;html=1;endArrow=open;endFill=0;strokeColor=#545B64;strokeWidth=2;fontSize=14;" edge="1" parent="1">
          <mxGeometry relative="1" as="geometry">
            <mxPoint x="1000" y="710" as="targetPoint" />
            <mxPoint x="540" y="710" as="sourcePoint" />
          </mxGeometry>
        </mxCell>
        <mxCell id="mjp-6h4JfasuZJpi6aN--33" value="" style="edgeStyle=orthogonalEdgeStyle;rounded=0;orthogonalLoop=1;jettySize=auto;html=1;dashed=1;dashPattern=8 8;exitX=0.5;exitY=1;exitDx=0;exitDy=0;exitPerimeter=0;" edge="1" parent="1" source="mjp-6h4JfasuZJpi6aN--16">
          <mxGeometry relative="1" as="geometry">
            <mxPoint x="430" y="520.455332197615" as="targetPoint" />
            <Array as="points">
              <mxPoint x="709" y="300" />
              <mxPoint x="430" y="300" />
            </Array>
          </mxGeometry>
        </mxCell>
        <mxCell id="88PnvLKRWRdYdQc_pk0I-1" value="1" style="rounded=1;whiteSpace=wrap;html=1;fillColor=#007CBD;strokeColor=none;fontColor=#FFFFFF;fontStyle=1;fontSize=22;labelBackgroundColor=none;" vertex="1" parent="1">
          <mxGeometry x="550" y="258" width="40" height="38" as="geometry" />
        </mxCell>
        <mxCell id="88PnvLKRWRdYdQc_pk0I-10" value="" style="edgeStyle=elbowEdgeStyle;rounded=0;orthogonalLoop=1;jettySize=auto;html=1;endArrow=open;endFill=0;strokeColor=#545B64;strokeWidth=2;fontSize=14;" edge="1" parent="1">
          <mxGeometry relative="1" as="geometry">
            <mxPoint x="330" y="559" as="targetPoint" />
            <mxPoint x="240" y="559" as="sourcePoint" />
            <Array as="points">
              <mxPoint x="270" y="559" />
            </Array>
          </mxGeometry>
        </mxCell>
        <mxCell id="88PnvLKRWRdYdQc_pk0I-12" value="国内用户" style="text;strokeColor=none;align=center;fillColor=none;html=1;verticalAlign=middle;whiteSpace=wrap;rounded=0;" vertex="1" parent="1">
          <mxGeometry x="540" y="305" width="60" height="30" as="geometry" />
        </mxCell>
        <mxCell id="1_Kst7Vh3topi2hGVKQY-1" value="3" style="rounded=1;whiteSpace=wrap;html=1;fillColor=#007CBD;strokeColor=none;fontColor=#FFFFFF;fontStyle=1;fontSize=22;labelBackgroundColor=none;" vertex="1" parent="1">
          <mxGeometry x="260" y="190" width="40" height="38" as="geometry" />
        </mxCell>
        <mxCell id="RcApiQuX-nPjNzjGQoj8-1" value="" style="edgeStyle=elbowEdgeStyle;rounded=0;orthogonalLoop=1;jettySize=auto;html=1;endArrow=open;endFill=0;strokeColor=#545B64;strokeWidth=2;fontSize=14;entryX=0;entryY=0.25;entryDx=0;entryDy=0;entryPerimeter=0;" edge="1" parent="1" target="1_Kst7Vh3topi2hGVKQY-6">
          <mxGeometry relative="1" as="geometry">
            <mxPoint x="690" y="600" as="targetPoint" />
            <mxPoint x="540" y="600" as="sourcePoint" />
            <Array as="points">
              <mxPoint x="580" y="650" />
            </Array>
          </mxGeometry>
        </mxCell>
        <mxCell id="1_Kst7Vh3topi2hGVKQY-2" value="4" style="rounded=1;whiteSpace=wrap;html=1;fillColor=#007CBD;strokeColor=none;fontColor=#FFFFFF;fontStyle=1;fontSize=22;labelBackgroundColor=none;" vertex="1" parent="1">
          <mxGeometry x="250" y="510" width="40" height="38" as="geometry" />
        </mxCell>
        <mxCell id="itJcY8VhUUT_hoTMXmkq-2" value="" style="edgeStyle=elbowEdgeStyle;rounded=0;orthogonalLoop=1;jettySize=auto;html=1;endArrow=open;endFill=0;strokeColor=#545B64;strokeWidth=2;fontSize=14;" edge="1" parent="1">
          <mxGeometry relative="1" as="geometry">
            <mxPoint x="330" y="590" as="targetPoint" />
            <mxPoint x="240" y="590" as="sourcePoint" />
            <Array as="points">
              <mxPoint x="270" y="590" />
            </Array>
          </mxGeometry>
        </mxCell>
      </root>
    </mxGraphModel>
  </diagram>
  <diagram id="QOGj7YacjZtuwUn07Y0o" name="第 3 页">
    <mxGraphModel dx="1434" dy="794" grid="1" gridSize="10" guides="1" tooltips="1" connect="1" arrows="1" fold="1" page="1" pageScale="1" pageWidth="827" pageHeight="1169" math="0" shadow="0">
      <root>
        <mxCell id="0" />
        <mxCell id="1" parent="0" />
        <mxCell id="SiPic4xnr9p1xFBY4opW-1" value="" style="whiteSpace=wrap;html=1;" vertex="1" parent="1">
          <mxGeometry y="100" width="1580" height="800" as="geometry" />
        </mxCell>
        <mxCell id="SiPic4xnr9p1xFBY4opW-2" value="AWS Cloud" style="points=[[0,0],[0.25,0],[0.5,0],[0.75,0],[1,0],[1,0.25],[1,0.5],[1,0.75],[1,1],[0.75,1],[0.5,1],[0.25,1],[0,1],[0,0.75],[0,0.5],[0,0.25]];outlineConnect=0;gradientColor=none;html=1;whiteSpace=wrap;fontSize=12;fontStyle=0;shape=mxgraph.aws4.group;grIcon=mxgraph.aws4.group_aws_cloud_alt;strokeColor=#232F3E;fillColor=none;verticalAlign=top;align=left;spacingLeft=30;fontColor=#232F3E;dashed=0;labelBackgroundColor=none;container=1;pointerEvents=0;collapsible=0;recursiveResize=0;" vertex="1" parent="1">
          <mxGeometry x="920" y="125" width="600" height="757" as="geometry" />
        </mxCell>
        <mxCell id="SiPic4xnr9p1xFBY4opW-3" value="Amazon S3" style="outlineConnect=0;fontColor=#232F3E;gradientColor=#60A337;gradientDirection=north;fillColor=#277116;strokeColor=#ffffff;dashed=0;verticalLabelPosition=bottom;verticalAlign=top;align=center;html=1;fontSize=12;fontStyle=0;aspect=fixed;shape=mxgraph.aws4.resourceIcon;resIcon=mxgraph.aws4.s3;labelBackgroundColor=none;" vertex="1" parent="SiPic4xnr9p1xFBY4opW-2">
          <mxGeometry x="380" y="326" width="78" height="78" as="geometry" />
        </mxCell>
        <mxCell id="SiPic4xnr9p1xFBY4opW-4" value="Amazon API&lt;br&gt;Gateway&lt;br&gt;" style="outlineConnect=0;fontColor=#232F3E;gradientColor=#945DF2;gradientDirection=north;fillColor=#5A30B5;strokeColor=#ffffff;dashed=0;verticalLabelPosition=bottom;verticalAlign=top;align=center;html=1;fontSize=12;fontStyle=0;aspect=fixed;shape=mxgraph.aws4.resourceIcon;resIcon=mxgraph.aws4.api_gateway;labelBackgroundColor=none;" vertex="1" parent="SiPic4xnr9p1xFBY4opW-2">
          <mxGeometry x="169" y="164.99999999999994" width="78" height="78" as="geometry" />
        </mxCell>
        <mxCell id="SiPic4xnr9p1xFBY4opW-5" value="Request&lt;br&gt;Processor&lt;br&gt;" style="outlineConnect=0;fontColor=#232F3E;gradientColor=none;fillColor=#D05C17;strokeColor=none;dashed=0;verticalLabelPosition=bottom;verticalAlign=top;align=center;html=1;fontSize=12;fontStyle=0;aspect=fixed;pointerEvents=1;shape=mxgraph.aws4.lambda_function;labelBackgroundColor=#ffffff;spacingTop=7;" vertex="1" parent="SiPic4xnr9p1xFBY4opW-2">
          <mxGeometry x="360" y="164.9999999999999" width="78" height="78" as="geometry" />
        </mxCell>
        <mxCell id="SiPic4xnr9p1xFBY4opW-6" style="edgeStyle=orthogonalEdgeStyle;rounded=0;orthogonalLoop=1;jettySize=auto;html=1;strokeWidth=2;" edge="1" parent="SiPic4xnr9p1xFBY4opW-2" source="SiPic4xnr9p1xFBY4opW-4" target="SiPic4xnr9p1xFBY4opW-5">
          <mxGeometry relative="1" as="geometry" />
        </mxCell>
        <mxCell id="SiPic4xnr9p1xFBY4opW-8" value="" style="edgeStyle=orthogonalEdgeStyle;rounded=0;orthogonalLoop=1;jettySize=auto;html=1;" edge="1" parent="SiPic4xnr9p1xFBY4opW-2" target="SiPic4xnr9p1xFBY4opW-20" source="SiPic4xnr9p1xFBY4opW-23">
          <mxGeometry relative="1" as="geometry">
            <mxPoint x="260" y="594" as="sourcePoint" />
          </mxGeometry>
        </mxCell>
        <mxCell id="SiPic4xnr9p1xFBY4opW-9" value="" style="sketch=0;points=[[0,0,0],[0.25,0,0],[0.5,0,0],[0.75,0,0],[1,0,0],[0,1,0],[0.25,1,0],[0.5,1,0],[0.75,1,0],[1,1,0],[0,0.25,0],[0,0.5,0],[0,0.75,0],[1,0.25,0],[1,0.5,0],[1,0.75,0]];outlineConnect=0;fontColor=#232F3E;fillColor=#8C4FFF;strokeColor=#ffffff;dashed=0;verticalLabelPosition=bottom;verticalAlign=top;align=center;html=1;fontSize=12;fontStyle=0;aspect=fixed;shape=mxgraph.aws4.resourceIcon;resIcon=mxgraph.aws4.route_53;" vertex="1" parent="SiPic4xnr9p1xFBY4opW-2">
          <mxGeometry x="50" y="55" width="78" height="78" as="geometry" />
        </mxCell>
        <mxCell id="SiPic4xnr9p1xFBY4opW-10" value="" style="edgeStyle=orthogonalEdgeStyle;rounded=0;orthogonalLoop=1;jettySize=auto;html=1;strokeWidth=2;" edge="1" parent="SiPic4xnr9p1xFBY4opW-2" source="SiPic4xnr9p1xFBY4opW-11" target="SiPic4xnr9p1xFBY4opW-3">
          <mxGeometry relative="1" as="geometry">
            <mxPoint x="207" y="344" as="targetPoint" />
          </mxGeometry>
        </mxCell>
        <mxCell id="SiPic4xnr9p1xFBY4opW-11" value="" style="sketch=0;points=[[0,0,0],[0.25,0,0],[0.5,0,0],[0.75,0,0],[1,0,0],[0,1,0],[0.25,1,0],[0.5,1,0],[0.75,1,0],[1,1,0],[0,0.25,0],[0,0.5,0],[0,0.75,0],[1,0.25,0],[1,0.5,0],[1,0.75,0]];outlineConnect=0;fontColor=#232F3E;fillColor=#8C4FFF;strokeColor=#ffffff;dashed=0;verticalLabelPosition=bottom;verticalAlign=top;align=center;html=1;fontSize=12;fontStyle=0;aspect=fixed;shape=mxgraph.aws4.resourceIcon;resIcon=mxgraph.aws4.cloudfront;" vertex="1" parent="SiPic4xnr9p1xFBY4opW-2">
          <mxGeometry x="169" y="326" width="78" height="78" as="geometry" />
        </mxCell>
        <mxCell id="SiPic4xnr9p1xFBY4opW-13" value="CloudFront" style="text;strokeColor=none;align=center;fillColor=none;html=1;verticalAlign=middle;whiteSpace=wrap;rounded=0;" vertex="1" parent="SiPic4xnr9p1xFBY4opW-2">
          <mxGeometry x="178" y="405" width="60" height="30" as="geometry" />
        </mxCell>
        <mxCell id="SiPic4xnr9p1xFBY4opW-14" value="" style="edgeStyle=orthogonalEdgeStyle;rounded=0;orthogonalLoop=1;jettySize=auto;html=1;dashed=1;dashPattern=8 8;exitX=0.5;exitY=1;exitDx=0;exitDy=0;exitPerimeter=0;" edge="1" parent="SiPic4xnr9p1xFBY4opW-2" source="SiPic4xnr9p1xFBY4opW-9" target="SiPic4xnr9p1xFBY4opW-11">
          <mxGeometry relative="1" as="geometry">
            <mxPoint x="99" y="143" as="sourcePoint" />
            <mxPoint x="-175" y="225" as="targetPoint" />
            <Array as="points">
              <mxPoint x="89" y="143" />
              <mxPoint x="90" y="143" />
              <mxPoint x="90" y="362" />
            </Array>
          </mxGeometry>
        </mxCell>
        <mxCell id="SiPic4xnr9p1xFBY4opW-15" value="2" style="rounded=1;whiteSpace=wrap;html=1;fillColor=#007CBD;strokeColor=none;fontColor=#FFFFFF;fontStyle=1;fontSize=22;labelBackgroundColor=none;" vertex="1" parent="SiPic4xnr9p1xFBY4opW-2">
          <mxGeometry x="40" y="235" width="40" height="38" as="geometry" />
        </mxCell>
        <mxCell id="SiPic4xnr9p1xFBY4opW-16" value="" style="edgeStyle=elbowEdgeStyle;rounded=0;orthogonalLoop=1;jettySize=auto;html=1;endArrow=open;endFill=0;strokeColor=#545B64;strokeWidth=2;fontSize=14;" edge="1" parent="SiPic4xnr9p1xFBY4opW-2" source="SiPic4xnr9p1xFBY4opW-47">
          <mxGeometry relative="1" as="geometry">
            <mxPoint x="380" y="396" as="targetPoint" />
            <mxPoint x="-146" y="450" as="sourcePoint" />
            <Array as="points">
              <mxPoint x="300" y="435" />
            </Array>
          </mxGeometry>
        </mxCell>
        <mxCell id="SiPic4xnr9p1xFBY4opW-17" value="海外用户" style="text;strokeColor=none;align=center;fillColor=none;html=1;verticalAlign=middle;whiteSpace=wrap;rounded=0;" vertex="1" parent="SiPic4xnr9p1xFBY4opW-2">
          <mxGeometry x="90" y="235" width="60" height="30" as="geometry" />
        </mxCell>
        <mxCell id="SiPic4xnr9p1xFBY4opW-18" value="" style="edgeStyle=elbowEdgeStyle;rounded=0;orthogonalLoop=1;jettySize=auto;html=1;endArrow=open;endFill=0;strokeColor=#545B64;strokeWidth=2;fontSize=14;entryX=0;entryY=0.5;entryDx=0;entryDy=0;entryPerimeter=0;exitX=1.014;exitY=0.15;exitDx=0;exitDy=0;exitPerimeter=0;" edge="1" parent="SiPic4xnr9p1xFBY4opW-2" source="SiPic4xnr9p1xFBY4opW-26">
          <mxGeometry relative="1" as="geometry">
            <mxPoint x="-380" y="255" as="sourcePoint" />
            <mxPoint x="169" y="379" as="targetPoint" />
            <Array as="points">
              <mxPoint x="20" y="245" />
            </Array>
          </mxGeometry>
        </mxCell>
        <mxCell id="SiPic4xnr9p1xFBY4opW-19" value="" style="group" vertex="1" connectable="0" parent="SiPic4xnr9p1xFBY4opW-2">
          <mxGeometry x="370" y="570" width="78" height="108" as="geometry" />
        </mxCell>
        <mxCell id="SiPic4xnr9p1xFBY4opW-20" value="" style="sketch=0;points=[[0,0,0],[0.25,0,0],[0.5,0,0],[0.75,0,0],[1,0,0],[0,1,0],[0.25,1,0],[0.5,1,0],[0.75,1,0],[1,1,0],[0,0.25,0],[0,0.5,0],[0,0.75,0],[1,0.25,0],[1,0.5,0],[1,0.75,0]];outlineConnect=0;fontColor=#232F3E;fillColor=#01A88D;strokeColor=#ffffff;dashed=0;verticalLabelPosition=bottom;verticalAlign=top;align=center;html=1;fontSize=12;fontStyle=0;aspect=fixed;shape=mxgraph.aws4.resourceIcon;resIcon=mxgraph.aws4.bedrock;" vertex="1" parent="SiPic4xnr9p1xFBY4opW-19">
          <mxGeometry width="78" height="78" as="geometry" />
        </mxCell>
        <mxCell id="SiPic4xnr9p1xFBY4opW-21" value="Bedrock" style="text;strokeColor=none;align=center;fillColor=none;html=1;verticalAlign=middle;whiteSpace=wrap;rounded=0;" vertex="1" parent="SiPic4xnr9p1xFBY4opW-19">
          <mxGeometry x="9" y="78" width="60" height="30" as="geometry" />
        </mxCell>
        <mxCell id="SiPic4xnr9p1xFBY4opW-22" value="" style="group" vertex="1" connectable="0" parent="SiPic4xnr9p1xFBY4opW-2">
          <mxGeometry x="180" y="571" width="78" height="108" as="geometry" />
        </mxCell>
        <mxCell id="SiPic4xnr9p1xFBY4opW-23" value="" style="sketch=0;points=[[0,0,0],[0.25,0,0],[0.5,0,0],[0.75,0,0],[1,0,0],[0,1,0],[0.25,1,0],[0.5,1,0],[0.75,1,0],[1,1,0],[0,0.25,0],[0,0.5,0],[0,0.75,0],[1,0.25,0],[1,0.5,0],[1,0.75,0]];outlineConnect=0;fontColor=#232F3E;fillColor=#ED7100;strokeColor=#ffffff;dashed=0;verticalLabelPosition=bottom;verticalAlign=top;align=center;html=1;fontSize=12;fontStyle=0;aspect=fixed;shape=mxgraph.aws4.resourceIcon;resIcon=mxgraph.aws4.ec2;" vertex="1" parent="SiPic4xnr9p1xFBY4opW-22">
          <mxGeometry width="78" height="78" as="geometry" />
        </mxCell>
        <mxCell id="SiPic4xnr9p1xFBY4opW-24" value="EC2" style="text;strokeColor=none;align=center;fillColor=none;html=1;verticalAlign=middle;whiteSpace=wrap;rounded=0;" vertex="1" parent="SiPic4xnr9p1xFBY4opW-22">
          <mxGeometry x="9" y="78" width="60" height="30" as="geometry" />
        </mxCell>
        <mxCell id="SiPic4xnr9p1xFBY4opW-25" value="" style="edgeStyle=elbowEdgeStyle;rounded=0;orthogonalLoop=1;jettySize=auto;html=1;endArrow=open;endFill=0;strokeColor=#545B64;strokeWidth=2;fontSize=14;" edge="1" parent="1">
          <mxGeometry relative="1" as="geometry">
            <mxPoint x="410" y="710" as="targetPoint" />
            <mxPoint x="190" y="710" as="sourcePoint" />
          </mxGeometry>
        </mxCell>
        <mxCell id="SiPic4xnr9p1xFBY4opW-26" value="" style="swimlane;fontSize=14;align=center;swimlaneFillColor=#f4f4f4;fillColor=#f4f4f4;startSize=255;container=1;pointerEvents=0;collapsible=0;recursiveResize=0;" vertex="1" parent="1">
          <mxGeometry x="30" y="125" width="160" height="752" as="geometry" />
        </mxCell>
        <mxCell id="SiPic4xnr9p1xFBY4opW-27" value="" style="sketch=0;outlineConnect=0;fontColor=#232F3E;gradientColor=none;fillColor=#232F3D;strokeColor=none;dashed=0;verticalLabelPosition=bottom;verticalAlign=top;align=center;html=1;fontSize=12;fontStyle=0;aspect=fixed;pointerEvents=1;shape=mxgraph.aws4.authenticated_user;" vertex="1" parent="SiPic4xnr9p1xFBY4opW-26">
          <mxGeometry x="44" y="550" width="78" height="78" as="geometry" />
        </mxCell>
        <mxCell id="SiPic4xnr9p1xFBY4opW-28" value="管理员" style="text;strokeColor=none;align=center;fillColor=none;html=1;verticalAlign=middle;whiteSpace=wrap;rounded=0;" vertex="1" parent="SiPic4xnr9p1xFBY4opW-26">
          <mxGeometry x="49.5" y="628" width="60" height="30" as="geometry" />
        </mxCell>
        <mxCell id="SiPic4xnr9p1xFBY4opW-29" value="" style="sketch=0;outlineConnect=0;fontColor=#232F3E;gradientColor=none;fillColor=#232F3D;strokeColor=none;dashed=0;verticalLabelPosition=bottom;verticalAlign=top;align=center;html=1;fontSize=12;fontStyle=0;aspect=fixed;pointerEvents=1;shape=mxgraph.aws4.user;" vertex="1" parent="SiPic4xnr9p1xFBY4opW-26">
          <mxGeometry x="44" y="75" width="78" height="78" as="geometry" />
        </mxCell>
        <mxCell id="SiPic4xnr9p1xFBY4opW-30" value="海外用户" style="text;strokeColor=none;align=center;fillColor=none;html=1;verticalAlign=middle;whiteSpace=wrap;rounded=0;" vertex="1" parent="SiPic4xnr9p1xFBY4opW-26">
          <mxGeometry x="53" y="153" width="60" height="30" as="geometry" />
        </mxCell>
        <mxCell id="SiPic4xnr9p1xFBY4opW-31" value="" style="sketch=0;outlineConnect=0;fontColor=#232F3E;gradientColor=none;fillColor=#232F3D;strokeColor=none;dashed=0;verticalLabelPosition=bottom;verticalAlign=top;align=center;html=1;fontSize=12;fontStyle=0;aspect=fixed;pointerEvents=1;shape=mxgraph.aws4.user;" vertex="1" parent="SiPic4xnr9p1xFBY4opW-26">
          <mxGeometry x="48" y="390" width="78" height="78" as="geometry" />
        </mxCell>
        <mxCell id="SiPic4xnr9p1xFBY4opW-32" value="&lt;div&gt;国内用户&lt;/div&gt;&lt;div&gt;C端&lt;br&gt;&lt;/div&gt;" style="text;strokeColor=none;align=center;fillColor=none;html=1;verticalAlign=middle;whiteSpace=wrap;rounded=0;" vertex="1" parent="SiPic4xnr9p1xFBY4opW-26">
          <mxGeometry x="60" y="470" width="60" height="30" as="geometry" />
        </mxCell>
        <mxCell id="SiPic4xnr9p1xFBY4opW-33" value="加速" style="swimlane;fontSize=14;align=center;swimlaneFillColor=#f4f4f4;fillColor=#f4f4f4;startSize=30;container=1;pointerEvents=0;collapsible=0;recursiveResize=0;" vertex="1" parent="1">
          <mxGeometry x="662" y="600" width="210" height="277" as="geometry" />
        </mxCell>
        <mxCell id="SiPic4xnr9p1xFBY4opW-34" value="" style="edgeStyle=elbowEdgeStyle;rounded=0;orthogonalLoop=1;jettySize=auto;html=1;endArrow=open;endFill=0;strokeColor=#545B64;strokeWidth=2;fontSize=14;" edge="1" parent="1">
          <mxGeometry relative="1" as="geometry">
            <mxPoint x="1100" y="734" as="targetPoint" />
            <mxPoint x="872" y="734" as="sourcePoint" />
          </mxGeometry>
        </mxCell>
        <mxCell id="SiPic4xnr9p1xFBY4opW-35" value="" style="edgeStyle=orthogonalEdgeStyle;rounded=0;orthogonalLoop=1;jettySize=auto;html=1;dashed=1;dashPattern=8 8;exitX=0.25;exitY=1;exitDx=0;exitDy=0;exitPerimeter=0;" edge="1" parent="1" source="SiPic4xnr9p1xFBY4opW-9" target="SiPic4xnr9p1xFBY4opW-47">
          <mxGeometry relative="1" as="geometry">
            <mxPoint x="759" y="520.455332197615" as="targetPoint" />
            <Array as="points">
              <mxPoint x="990" y="300" />
              <mxPoint x="460" y="300" />
            </Array>
            <mxPoint x="1038" y="258" as="sourcePoint" />
          </mxGeometry>
        </mxCell>
        <mxCell id="SiPic4xnr9p1xFBY4opW-36" value="1" style="rounded=1;whiteSpace=wrap;html=1;fillColor=#007CBD;strokeColor=none;fontColor=#FFFFFF;fontStyle=1;fontSize=22;labelBackgroundColor=none;" vertex="1" parent="1">
          <mxGeometry x="850" y="258" width="40" height="38" as="geometry" />
        </mxCell>
        <mxCell id="SiPic4xnr9p1xFBY4opW-37" value="" style="edgeStyle=elbowEdgeStyle;rounded=0;orthogonalLoop=1;jettySize=auto;html=1;endArrow=open;endFill=0;strokeColor=#545B64;strokeWidth=2;fontSize=14;exitX=0.113;exitY=0.574;exitDx=0;exitDy=0;exitPerimeter=0;entryX=0.244;entryY=0.575;entryDx=0;entryDy=0;entryPerimeter=0;" edge="1" parent="1">
          <mxGeometry relative="1" as="geometry">
            <mxPoint x="397.52" y="560" as="targetPoint" />
            <mxPoint x="190.53999999999996" y="559.2" as="sourcePoint" />
            <Array as="points">
              <mxPoint x="282" y="559" />
            </Array>
          </mxGeometry>
        </mxCell>
        <mxCell id="SiPic4xnr9p1xFBY4opW-38" value="国内用户" style="text;strokeColor=none;align=center;fillColor=none;html=1;verticalAlign=middle;whiteSpace=wrap;rounded=0;" vertex="1" parent="1">
          <mxGeometry x="840" y="305" width="60" height="30" as="geometry" />
        </mxCell>
        <mxCell id="SiPic4xnr9p1xFBY4opW-39" value="3" style="rounded=1;whiteSpace=wrap;html=1;fillColor=#007CBD;strokeColor=none;fontColor=#FFFFFF;fontStyle=1;fontSize=22;labelBackgroundColor=none;" vertex="1" parent="1">
          <mxGeometry x="260" y="190" width="40" height="38" as="geometry" />
        </mxCell>
        <mxCell id="SiPic4xnr9p1xFBY4opW-40" value="4" style="rounded=1;whiteSpace=wrap;html=1;fillColor=#007CBD;strokeColor=none;fontColor=#FFFFFF;fontStyle=1;fontSize=22;labelBackgroundColor=none;" vertex="1" parent="1">
          <mxGeometry x="250" y="510" width="40" height="38" as="geometry" />
        </mxCell>
        <mxCell id="SiPic4xnr9p1xFBY4opW-41" value="" style="edgeStyle=elbowEdgeStyle;rounded=0;orthogonalLoop=1;jettySize=auto;html=1;endArrow=open;endFill=0;strokeColor=#545B64;strokeWidth=2;fontSize=14;" edge="1" parent="1">
          <mxGeometry relative="1" as="geometry">
            <mxPoint x="410" y="690" as="targetPoint" />
            <mxPoint x="190" y="583.25" as="sourcePoint" />
            <Array as="points">
              <mxPoint x="260" y="640" />
            </Array>
          </mxGeometry>
        </mxCell>
        <mxCell id="SiPic4xnr9p1xFBY4opW-42" value="宁夏" style="points=[[0,0],[0.25,0],[0.5,0],[0.75,0],[1,0],[1,0.25],[1,0.5],[1,0.75],[1,1],[0.75,1],[0.5,1],[0.25,1],[0,1],[0,0.75],[0,0.5],[0,0.25]];outlineConnect=0;gradientColor=none;html=1;whiteSpace=wrap;fontSize=12;fontStyle=0;container=1;pointerEvents=0;collapsible=0;recursiveResize=0;shape=mxgraph.aws4.group;grIcon=mxgraph.aws4.group_aws_cloud_alt;strokeColor=#232F3E;fillColor=none;verticalAlign=top;align=left;spacingLeft=30;fontColor=#232F3E;dashed=0;" vertex="1" parent="1">
          <mxGeometry x="298" y="380" width="332" height="500" as="geometry" />
        </mxCell>
        <mxCell id="SiPic4xnr9p1xFBY4opW-46" value="" style="edgeStyle=elbowEdgeStyle;rounded=0;orthogonalLoop=1;jettySize=auto;html=1;endArrow=open;endFill=0;strokeColor=#545B64;strokeWidth=2;fontSize=14;" edge="1" parent="SiPic4xnr9p1xFBY4opW-42">
          <mxGeometry relative="1" as="geometry">
            <mxPoint x="363" y="341" as="targetPoint" />
            <mxPoint x="191" y="340.5" as="sourcePoint" />
          </mxGeometry>
        </mxCell>
        <mxCell id="SiPic4xnr9p1xFBY4opW-56" value="" style="edgeStyle=elbowEdgeStyle;rounded=0;orthogonalLoop=1;jettySize=auto;html=1;endArrow=open;endFill=0;strokeColor=#545B64;strokeWidth=2;fontSize=14;" edge="1" parent="SiPic4xnr9p1xFBY4opW-42">
          <mxGeometry relative="1" as="geometry">
            <mxPoint x="191" y="312" as="targetPoint" />
            <Array as="points" />
            <mxPoint x="363" y="312" as="sourcePoint" />
          </mxGeometry>
        </mxCell>
        <mxCell id="utotqv-OI24v8Bd0SpoI-1" value="" style="edgeStyle=elbowEdgeStyle;rounded=0;orthogonalLoop=1;jettySize=auto;html=1;endArrow=open;endFill=0;strokeColor=#545B64;strokeWidth=2;fontSize=14;" edge="1" parent="SiPic4xnr9p1xFBY4opW-42">
          <mxGeometry relative="1" as="geometry">
            <mxPoint x="152" y="230" as="targetPoint" />
            <mxPoint x="152" y="288" as="sourcePoint" />
          </mxGeometry>
        </mxCell>
        <mxCell id="SiPic4xnr9p1xFBY4opW-43" value="" style="group" vertex="1" connectable="0" parent="1">
          <mxGeometry x="410" y="667" width="78" height="108" as="geometry" />
        </mxCell>
        <mxCell id="SiPic4xnr9p1xFBY4opW-44" value="" style="sketch=0;points=[[0,0,0],[0.25,0,0],[0.5,0,0],[0.75,0,0],[1,0,0],[0,1,0],[0.25,1,0],[0.5,1,0],[0.75,1,0],[1,1,0],[0,0.25,0],[0,0.5,0],[0,0.75,0],[1,0.25,0],[1,0.5,0],[1,0.75,0]];outlineConnect=0;fontColor=#232F3E;fillColor=#ED7100;strokeColor=#ffffff;dashed=0;verticalLabelPosition=bottom;verticalAlign=top;align=center;html=1;fontSize=12;fontStyle=0;aspect=fixed;shape=mxgraph.aws4.resourceIcon;resIcon=mxgraph.aws4.ec2;direction=west;" vertex="1" parent="SiPic4xnr9p1xFBY4opW-43">
          <mxGeometry width="78" height="78" as="geometry" />
        </mxCell>
        <mxCell id="SiPic4xnr9p1xFBY4opW-45" value="&lt;div&gt;EC2 windows&lt;br&gt;&lt;/div&gt;" style="text;strokeColor=none;align=center;fillColor=none;html=1;verticalAlign=middle;whiteSpace=wrap;rounded=0;" vertex="1" parent="SiPic4xnr9p1xFBY4opW-43">
          <mxGeometry x="9" y="78" width="60" height="30" as="geometry" />
        </mxCell>
        <mxCell id="SiPic4xnr9p1xFBY4opW-7" value="" style="edgeStyle=elbowEdgeStyle;rounded=0;orthogonalLoop=1;jettySize=auto;html=1;endArrow=open;endFill=0;strokeColor=#545B64;strokeWidth=2;fontSize=14;" edge="1" parent="1" source="SiPic4xnr9p1xFBY4opW-5">
          <mxGeometry relative="1" as="geometry">
            <mxPoint x="872" y="670.5" as="targetPoint" />
            <Array as="points">
              <mxPoint x="1420" y="430" />
            </Array>
            <mxPoint x="1739.9991128500264" y="329.5" as="sourcePoint" />
          </mxGeometry>
        </mxCell>
        <mxCell id="SiPic4xnr9p1xFBY4opW-47" value="Amazon S3" style="outlineConnect=0;fontColor=#232F3E;gradientColor=#60A337;gradientDirection=north;fillColor=#277116;strokeColor=#ffffff;dashed=0;verticalLabelPosition=bottom;verticalAlign=top;align=center;html=1;fontSize=12;fontStyle=0;aspect=fixed;shape=mxgraph.aws4.resourceIcon;resIcon=mxgraph.aws4.s3;labelBackgroundColor=none;" vertex="1" parent="1">
          <mxGeometry x="410" y="520" width="78" height="78" as="geometry" />
        </mxCell>
        <mxCell id="SiPic4xnr9p1xFBY4opW-54" value="" style="sketch=0;outlineConnect=0;fontColor=#232F3E;gradientColor=none;fillColor=#232F3D;strokeColor=none;dashed=0;verticalLabelPosition=bottom;verticalAlign=top;align=center;html=1;fontSize=12;fontStyle=0;aspect=fixed;pointerEvents=1;shape=mxgraph.aws4.internet_alt2;" vertex="1" parent="1">
          <mxGeometry x="720" y="720" width="78" height="78" as="geometry" />
        </mxCell>
      </root>
    </mxGraphModel>
  </diagram>
  <diagram id="A2avEddg0tLyiA1gumbO" name="第 4 页">
    <mxGraphModel dx="1434" dy="794" grid="1" gridSize="10" guides="1" tooltips="1" connect="1" arrows="1" fold="1" page="1" pageScale="1" pageWidth="827" pageHeight="1169" math="0" shadow="0">
      <root>
        <mxCell id="0" />
        <mxCell id="1" parent="0" />
        <mxCell id="IUSP58ip_YFw6NOeaf4Y-1" value="" style="whiteSpace=wrap;html=1;" vertex="1" parent="1">
          <mxGeometry y="100" width="1400" height="800" as="geometry" />
        </mxCell>
        <mxCell id="IUSP58ip_YFw6NOeaf4Y-2" value="AWS Cloud" style="points=[[0,0],[0.25,0],[0.5,0],[0.75,0],[1,0],[1,0.25],[1,0.5],[1,0.75],[1,1],[0.75,1],[0.5,1],[0.25,1],[0,1],[0,0.75],[0,0.5],[0,0.25]];outlineConnect=0;gradientColor=none;html=1;whiteSpace=wrap;fontSize=12;fontStyle=0;shape=mxgraph.aws4.group;grIcon=mxgraph.aws4.group_aws_cloud_alt;strokeColor=#232F3E;fillColor=none;verticalAlign=top;align=left;spacingLeft=30;fontColor=#232F3E;dashed=0;labelBackgroundColor=none;container=1;pointerEvents=0;collapsible=0;recursiveResize=0;" vertex="1" parent="1">
          <mxGeometry x="620" y="125" width="740" height="757" as="geometry" />
        </mxCell>
        <mxCell id="IUSP58ip_YFw6NOeaf4Y-8" value="" style="edgeStyle=elbowEdgeStyle;rounded=0;orthogonalLoop=1;jettySize=auto;html=1;endArrow=open;endFill=0;strokeColor=#545B64;strokeWidth=2;fontSize=14;" edge="1" parent="IUSP58ip_YFw6NOeaf4Y-2" source="IUSP58ip_YFw6NOeaf4Y-5">
          <mxGeometry relative="1" as="geometry">
            <mxPoint x="437.999112850026" y="154.9999999999999" as="sourcePoint" />
            <mxPoint x="-80" y="535" as="targetPoint" />
            <Array as="points">
              <mxPoint x="510" y="366" />
            </Array>
          </mxGeometry>
        </mxCell>
        <mxCell id="IUSP58ip_YFw6NOeaf4Y-3" value="Amazon S3" style="outlineConnect=0;fontColor=#232F3E;gradientColor=#60A337;gradientDirection=north;fillColor=#277116;strokeColor=#ffffff;dashed=0;verticalLabelPosition=bottom;verticalAlign=top;align=center;html=1;fontSize=12;fontStyle=0;aspect=fixed;shape=mxgraph.aws4.resourceIcon;resIcon=mxgraph.aws4.s3;labelBackgroundColor=none;" vertex="1" parent="IUSP58ip_YFw6NOeaf4Y-2">
          <mxGeometry x="380" y="342" width="78" height="78" as="geometry" />
        </mxCell>
        <mxCell id="IUSP58ip_YFw6NOeaf4Y-4" value="Amazon API&lt;br&gt;Gateway&lt;br&gt;" style="outlineConnect=0;fontColor=#232F3E;gradientColor=#945DF2;gradientDirection=north;fillColor=#5A30B5;strokeColor=#ffffff;dashed=0;verticalLabelPosition=bottom;verticalAlign=top;align=center;html=1;fontSize=12;fontStyle=0;aspect=fixed;shape=mxgraph.aws4.resourceIcon;resIcon=mxgraph.aws4.api_gateway;labelBackgroundColor=none;" vertex="1" parent="IUSP58ip_YFw6NOeaf4Y-2">
          <mxGeometry x="169" y="164.99999999999994" width="78" height="78" as="geometry" />
        </mxCell>
        <mxCell id="IUSP58ip_YFw6NOeaf4Y-5" value="Request&lt;br&gt;Processor&lt;br&gt;" style="outlineConnect=0;fontColor=#232F3E;gradientColor=none;fillColor=#D05C17;strokeColor=none;dashed=0;verticalLabelPosition=bottom;verticalAlign=top;align=center;html=1;fontSize=12;fontStyle=0;aspect=fixed;pointerEvents=1;shape=mxgraph.aws4.lambda_function;labelBackgroundColor=#ffffff;spacingTop=7;" vertex="1" parent="IUSP58ip_YFw6NOeaf4Y-2">
          <mxGeometry x="360" y="164.9999999999999" width="78" height="78" as="geometry" />
        </mxCell>
        <mxCell id="IUSP58ip_YFw6NOeaf4Y-6" value="Amazon&lt;br&gt;DynamoDB&lt;br&gt;" style="outlineConnect=0;fontColor=#232F3E;gradientColor=#4D72F3;gradientDirection=north;fillColor=#3334B9;strokeColor=#ffffff;dashed=0;verticalLabelPosition=bottom;verticalAlign=top;align=center;html=1;fontSize=12;fontStyle=0;aspect=fixed;shape=mxgraph.aws4.resourceIcon;resIcon=mxgraph.aws4.dynamodb;labelBackgroundColor=#ffffff;" vertex="1" parent="IUSP58ip_YFw6NOeaf4Y-2">
          <mxGeometry x="535.0000000000005" y="164.99999999999994" width="78" height="78" as="geometry" />
        </mxCell>
        <mxCell id="IUSP58ip_YFw6NOeaf4Y-7" style="edgeStyle=orthogonalEdgeStyle;rounded=0;orthogonalLoop=1;jettySize=auto;html=1;strokeWidth=2;" edge="1" parent="IUSP58ip_YFw6NOeaf4Y-2" source="IUSP58ip_YFw6NOeaf4Y-4" target="IUSP58ip_YFw6NOeaf4Y-5">
          <mxGeometry relative="1" as="geometry" />
        </mxCell>
        <mxCell id="IUSP58ip_YFw6NOeaf4Y-9" value="" style="edgeStyle=orthogonalEdgeStyle;rounded=0;orthogonalLoop=1;jettySize=auto;html=1;" edge="1" parent="IUSP58ip_YFw6NOeaf4Y-2" target="IUSP58ip_YFw6NOeaf4Y-22">
          <mxGeometry relative="1" as="geometry">
            <mxPoint x="460" y="585" as="sourcePoint" />
          </mxGeometry>
        </mxCell>
        <mxCell id="IUSP58ip_YFw6NOeaf4Y-10" value="" style="sketch=0;points=[[0,0,0],[0.25,0,0],[0.5,0,0],[0.75,0,0],[1,0,0],[0,1,0],[0.25,1,0],[0.5,1,0],[0.75,1,0],[1,1,0],[0,0.25,0],[0,0.5,0],[0,0.75,0],[1,0.25,0],[1,0.5,0],[1,0.75,0]];outlineConnect=0;fontColor=#232F3E;fillColor=#8C4FFF;strokeColor=#ffffff;dashed=0;verticalLabelPosition=bottom;verticalAlign=top;align=center;html=1;fontSize=12;fontStyle=0;aspect=fixed;shape=mxgraph.aws4.resourceIcon;resIcon=mxgraph.aws4.route_53;" vertex="1" parent="IUSP58ip_YFw6NOeaf4Y-2">
          <mxGeometry x="50" y="55" width="78" height="78" as="geometry" />
        </mxCell>
        <mxCell id="IUSP58ip_YFw6NOeaf4Y-11" value="" style="edgeStyle=orthogonalEdgeStyle;rounded=0;orthogonalLoop=1;jettySize=auto;html=1;strokeWidth=2;" edge="1" parent="IUSP58ip_YFw6NOeaf4Y-2" source="IUSP58ip_YFw6NOeaf4Y-12" target="IUSP58ip_YFw6NOeaf4Y-3">
          <mxGeometry relative="1" as="geometry">
            <mxPoint x="207" y="344" as="targetPoint" />
          </mxGeometry>
        </mxCell>
        <mxCell id="IUSP58ip_YFw6NOeaf4Y-12" value="" style="sketch=0;points=[[0,0,0],[0.25,0,0],[0.5,0,0],[0.75,0,0],[1,0,0],[0,1,0],[0.25,1,0],[0.5,1,0],[0.75,1,0],[1,1,0],[0,0.25,0],[0,0.5,0],[0,0.75,0],[1,0.25,0],[1,0.5,0],[1,0.75,0]];outlineConnect=0;fontColor=#232F3E;fillColor=#8C4FFF;strokeColor=#ffffff;dashed=0;verticalLabelPosition=bottom;verticalAlign=top;align=center;html=1;fontSize=12;fontStyle=0;aspect=fixed;shape=mxgraph.aws4.resourceIcon;resIcon=mxgraph.aws4.cloudfront;" vertex="1" parent="IUSP58ip_YFw6NOeaf4Y-2">
          <mxGeometry x="169" y="342" width="78" height="78" as="geometry" />
        </mxCell>
        <mxCell id="IUSP58ip_YFw6NOeaf4Y-14" value="CloudFront" style="text;strokeColor=none;align=center;fillColor=none;html=1;verticalAlign=middle;whiteSpace=wrap;rounded=0;" vertex="1" parent="IUSP58ip_YFw6NOeaf4Y-2">
          <mxGeometry x="178" y="420" width="60" height="30" as="geometry" />
        </mxCell>
        <mxCell id="IUSP58ip_YFw6NOeaf4Y-15" value="" style="edgeStyle=orthogonalEdgeStyle;rounded=0;orthogonalLoop=1;jettySize=auto;html=1;dashed=1;dashPattern=8 8;entryX=0;entryY=0.25;entryDx=0;entryDy=0;entryPerimeter=0;exitX=0.5;exitY=1;exitDx=0;exitDy=0;exitPerimeter=0;" edge="1" parent="IUSP58ip_YFw6NOeaf4Y-2" source="IUSP58ip_YFw6NOeaf4Y-10" target="IUSP58ip_YFw6NOeaf4Y-12">
          <mxGeometry relative="1" as="geometry">
            <mxPoint x="99" y="143" as="sourcePoint" />
            <mxPoint x="-175" y="225" as="targetPoint" />
            <Array as="points">
              <mxPoint x="89" y="143" />
              <mxPoint x="90" y="143" />
              <mxPoint x="90" y="362" />
            </Array>
          </mxGeometry>
        </mxCell>
        <mxCell id="IUSP58ip_YFw6NOeaf4Y-16" value="2" style="rounded=1;whiteSpace=wrap;html=1;fillColor=#007CBD;strokeColor=none;fontColor=#FFFFFF;fontStyle=1;fontSize=22;labelBackgroundColor=none;" vertex="1" parent="IUSP58ip_YFw6NOeaf4Y-2">
          <mxGeometry x="40" y="235" width="40" height="38" as="geometry" />
        </mxCell>
        <mxCell id="IUSP58ip_YFw6NOeaf4Y-17" value="" style="edgeStyle=elbowEdgeStyle;rounded=0;orthogonalLoop=1;jettySize=auto;html=1;endArrow=open;endFill=0;strokeColor=#545B64;strokeWidth=2;fontSize=14;" edge="1" parent="IUSP58ip_YFw6NOeaf4Y-2">
          <mxGeometry relative="1" as="geometry">
            <mxPoint x="380" y="396" as="targetPoint" />
            <mxPoint x="-146" y="450" as="sourcePoint" />
            <Array as="points">
              <mxPoint x="300" y="435" />
            </Array>
          </mxGeometry>
        </mxCell>
        <mxCell id="IUSP58ip_YFw6NOeaf4Y-18" value="海外用户" style="text;strokeColor=none;align=center;fillColor=none;html=1;verticalAlign=middle;whiteSpace=wrap;rounded=0;" vertex="1" parent="IUSP58ip_YFw6NOeaf4Y-2">
          <mxGeometry x="90" y="235" width="60" height="30" as="geometry" />
        </mxCell>
        <mxCell id="IUSP58ip_YFw6NOeaf4Y-20" value="" style="edgeStyle=elbowEdgeStyle;rounded=0;orthogonalLoop=1;jettySize=auto;html=1;endArrow=open;endFill=0;strokeColor=#545B64;strokeWidth=2;fontSize=14;entryX=0;entryY=0.5;entryDx=0;entryDy=0;entryPerimeter=0;exitX=1.014;exitY=0.15;exitDx=0;exitDy=0;exitPerimeter=0;" edge="1" parent="IUSP58ip_YFw6NOeaf4Y-2" source="IUSP58ip_YFw6NOeaf4Y-28">
          <mxGeometry relative="1" as="geometry">
            <mxPoint x="-380" y="255" as="sourcePoint" />
            <mxPoint x="169" y="379" as="targetPoint" />
            <Array as="points">
              <mxPoint x="20" y="245" />
            </Array>
          </mxGeometry>
        </mxCell>
        <mxCell id="IUSP58ip_YFw6NOeaf4Y-21" value="" style="group" vertex="1" connectable="0" parent="IUSP58ip_YFw6NOeaf4Y-2">
          <mxGeometry x="570" y="546" width="78" height="108" as="geometry" />
        </mxCell>
        <mxCell id="IUSP58ip_YFw6NOeaf4Y-22" value="" style="sketch=0;points=[[0,0,0],[0.25,0,0],[0.5,0,0],[0.75,0,0],[1,0,0],[0,1,0],[0.25,1,0],[0.5,1,0],[0.75,1,0],[1,1,0],[0,0.25,0],[0,0.5,0],[0,0.75,0],[1,0.25,0],[1,0.5,0],[1,0.75,0]];outlineConnect=0;fontColor=#232F3E;fillColor=#01A88D;strokeColor=#ffffff;dashed=0;verticalLabelPosition=bottom;verticalAlign=top;align=center;html=1;fontSize=12;fontStyle=0;aspect=fixed;shape=mxgraph.aws4.resourceIcon;resIcon=mxgraph.aws4.bedrock;" vertex="1" parent="IUSP58ip_YFw6NOeaf4Y-21">
          <mxGeometry width="78" height="78" as="geometry" />
        </mxCell>
        <mxCell id="IUSP58ip_YFw6NOeaf4Y-23" value="Bedrock" style="text;strokeColor=none;align=center;fillColor=none;html=1;verticalAlign=middle;whiteSpace=wrap;rounded=0;" vertex="1" parent="IUSP58ip_YFw6NOeaf4Y-21">
          <mxGeometry x="9" y="78" width="60" height="30" as="geometry" />
        </mxCell>
        <mxCell id="IUSP58ip_YFw6NOeaf4Y-27" value="" style="edgeStyle=elbowEdgeStyle;rounded=0;orthogonalLoop=1;jettySize=auto;html=1;endArrow=open;endFill=0;strokeColor=#545B64;strokeWidth=2;fontSize=14;" edge="1" parent="1">
          <mxGeometry relative="1" as="geometry">
            <mxPoint x="330" y="710" as="targetPoint" />
            <mxPoint x="240" y="710" as="sourcePoint" />
          </mxGeometry>
        </mxCell>
        <mxCell id="IUSP58ip_YFw6NOeaf4Y-28" value="" style="swimlane;fontSize=14;align=center;swimlaneFillColor=#f4f4f4;fillColor=#f4f4f4;startSize=255;container=1;pointerEvents=0;collapsible=0;recursiveResize=0;" vertex="1" parent="1">
          <mxGeometry x="30" y="125" width="210" height="752" as="geometry" />
        </mxCell>
        <mxCell id="IUSP58ip_YFw6NOeaf4Y-29" value="" style="sketch=0;outlineConnect=0;fontColor=#232F3E;gradientColor=none;fillColor=#232F3D;strokeColor=none;dashed=0;verticalLabelPosition=bottom;verticalAlign=top;align=center;html=1;fontSize=12;fontStyle=0;aspect=fixed;pointerEvents=1;shape=mxgraph.aws4.authenticated_user;" vertex="1" parent="IUSP58ip_YFw6NOeaf4Y-28">
          <mxGeometry x="62" y="550" width="78" height="78" as="geometry" />
        </mxCell>
        <mxCell id="IUSP58ip_YFw6NOeaf4Y-30" value="管理员" style="text;strokeColor=none;align=center;fillColor=none;html=1;verticalAlign=middle;whiteSpace=wrap;rounded=0;" vertex="1" parent="IUSP58ip_YFw6NOeaf4Y-28">
          <mxGeometry x="67.5" y="628" width="60" height="30" as="geometry" />
        </mxCell>
        <mxCell id="IUSP58ip_YFw6NOeaf4Y-31" value="" style="sketch=0;outlineConnect=0;fontColor=#232F3E;gradientColor=none;fillColor=#232F3D;strokeColor=none;dashed=0;verticalLabelPosition=bottom;verticalAlign=top;align=center;html=1;fontSize=12;fontStyle=0;aspect=fixed;pointerEvents=1;shape=mxgraph.aws4.user;" vertex="1" parent="IUSP58ip_YFw6NOeaf4Y-28">
          <mxGeometry x="62" y="75" width="78" height="78" as="geometry" />
        </mxCell>
        <mxCell id="IUSP58ip_YFw6NOeaf4Y-32" value="海外用户" style="text;strokeColor=none;align=center;fillColor=none;html=1;verticalAlign=middle;whiteSpace=wrap;rounded=0;" vertex="1" parent="IUSP58ip_YFw6NOeaf4Y-28">
          <mxGeometry x="71" y="153" width="60" height="30" as="geometry" />
        </mxCell>
        <mxCell id="IUSP58ip_YFw6NOeaf4Y-33" value="" style="sketch=0;outlineConnect=0;fontColor=#232F3E;gradientColor=none;fillColor=#232F3D;strokeColor=none;dashed=0;verticalLabelPosition=bottom;verticalAlign=top;align=center;html=1;fontSize=12;fontStyle=0;aspect=fixed;pointerEvents=1;shape=mxgraph.aws4.user;" vertex="1" parent="IUSP58ip_YFw6NOeaf4Y-28">
          <mxGeometry x="66" y="390" width="78" height="78" as="geometry" />
        </mxCell>
        <mxCell id="IUSP58ip_YFw6NOeaf4Y-34" value="国内用户" style="text;strokeColor=none;align=center;fillColor=none;html=1;verticalAlign=middle;whiteSpace=wrap;rounded=0;" vertex="1" parent="IUSP58ip_YFw6NOeaf4Y-28">
          <mxGeometry x="80" y="468" width="60" height="30" as="geometry" />
        </mxCell>
        <mxCell id="IUSP58ip_YFw6NOeaf4Y-35" value="宁夏region" style="swimlane;fontSize=14;align=center;swimlaneFillColor=#f4f4f4;fillColor=#f4f4f4;startSize=30;container=1;pointerEvents=0;collapsible=0;recursiveResize=0;" vertex="1" parent="1">
          <mxGeometry x="330" y="380" width="210" height="497" as="geometry" />
        </mxCell>
        <mxCell id="IUSP58ip_YFw6NOeaf4Y-42" value="" style="edgeStyle=elbowEdgeStyle;rounded=0;orthogonalLoop=1;jettySize=auto;html=1;endArrow=open;endFill=0;strokeColor=#545B64;strokeWidth=2;fontSize=14;" edge="1" parent="1">
          <mxGeometry relative="1" as="geometry">
            <mxPoint x="1000" y="710" as="targetPoint" />
            <mxPoint x="540" y="710" as="sourcePoint" />
          </mxGeometry>
        </mxCell>
        <mxCell id="IUSP58ip_YFw6NOeaf4Y-43" value="" style="edgeStyle=orthogonalEdgeStyle;rounded=0;orthogonalLoop=1;jettySize=auto;html=1;dashed=1;dashPattern=8 8;exitX=0.5;exitY=1;exitDx=0;exitDy=0;exitPerimeter=0;" edge="1" parent="1" source="IUSP58ip_YFw6NOeaf4Y-10">
          <mxGeometry relative="1" as="geometry">
            <mxPoint x="430" y="520.455332197615" as="targetPoint" />
            <Array as="points">
              <mxPoint x="709" y="300" />
              <mxPoint x="430" y="300" />
            </Array>
          </mxGeometry>
        </mxCell>
        <mxCell id="IUSP58ip_YFw6NOeaf4Y-44" value="1" style="rounded=1;whiteSpace=wrap;html=1;fillColor=#007CBD;strokeColor=none;fontColor=#FFFFFF;fontStyle=1;fontSize=22;labelBackgroundColor=none;" vertex="1" parent="1">
          <mxGeometry x="550" y="258" width="40" height="38" as="geometry" />
        </mxCell>
        <mxCell id="IUSP58ip_YFw6NOeaf4Y-45" value="" style="edgeStyle=elbowEdgeStyle;rounded=0;orthogonalLoop=1;jettySize=auto;html=1;endArrow=open;endFill=0;strokeColor=#545B64;strokeWidth=2;fontSize=14;" edge="1" parent="1">
          <mxGeometry relative="1" as="geometry">
            <mxPoint x="386" y="559" as="targetPoint" />
            <mxPoint x="240" y="559" as="sourcePoint" />
            <Array as="points">
              <mxPoint x="270" y="559" />
            </Array>
          </mxGeometry>
        </mxCell>
        <mxCell id="IUSP58ip_YFw6NOeaf4Y-46" value="国内用户" style="text;strokeColor=none;align=center;fillColor=none;html=1;verticalAlign=middle;whiteSpace=wrap;rounded=0;" vertex="1" parent="1">
          <mxGeometry x="540" y="305" width="60" height="30" as="geometry" />
        </mxCell>
        <mxCell id="IUSP58ip_YFw6NOeaf4Y-47" value="3" style="rounded=1;whiteSpace=wrap;html=1;fillColor=#007CBD;strokeColor=none;fontColor=#FFFFFF;fontStyle=1;fontSize=22;labelBackgroundColor=none;" vertex="1" parent="1">
          <mxGeometry x="260" y="190" width="40" height="38" as="geometry" />
        </mxCell>
        <mxCell id="IUSP58ip_YFw6NOeaf4Y-48" value="4" style="rounded=1;whiteSpace=wrap;html=1;fillColor=#007CBD;strokeColor=none;fontColor=#FFFFFF;fontStyle=1;fontSize=22;labelBackgroundColor=none;" vertex="1" parent="1">
          <mxGeometry x="250" y="510" width="40" height="38" as="geometry" />
        </mxCell>
        <mxCell id="3psPYV6CiN_XDdZ2MXUJ-1" value="Amazon S3" style="outlineConnect=0;fontColor=#232F3E;gradientColor=#60A337;gradientDirection=north;fillColor=#277116;strokeColor=#ffffff;dashed=0;verticalLabelPosition=bottom;verticalAlign=top;align=center;html=1;fontSize=12;fontStyle=0;aspect=fixed;shape=mxgraph.aws4.resourceIcon;resIcon=mxgraph.aws4.s3;labelBackgroundColor=none;" vertex="1" parent="1">
          <mxGeometry x="390" y="520" width="78" height="78" as="geometry" />
        </mxCell>
        <mxCell id="3psPYV6CiN_XDdZ2MXUJ-2" value="" style="group" vertex="1" connectable="0" parent="1">
          <mxGeometry x="388" y="670" width="78" height="108" as="geometry" />
        </mxCell>
        <mxCell id="3psPYV6CiN_XDdZ2MXUJ-3" value="" style="sketch=0;points=[[0,0,0],[0.25,0,0],[0.5,0,0],[0.75,0,0],[1,0,0],[0,1,0],[0.25,1,0],[0.5,1,0],[0.75,1,0],[1,1,0],[0,0.25,0],[0,0.5,0],[0,0.75,0],[1,0.25,0],[1,0.5,0],[1,0.75,0]];outlineConnect=0;fontColor=#232F3E;fillColor=#ED7100;strokeColor=#ffffff;dashed=0;verticalLabelPosition=bottom;verticalAlign=top;align=center;html=1;fontSize=12;fontStyle=0;aspect=fixed;shape=mxgraph.aws4.resourceIcon;resIcon=mxgraph.aws4.ec2;" vertex="1" parent="3psPYV6CiN_XDdZ2MXUJ-2">
          <mxGeometry width="78" height="78" as="geometry" />
        </mxCell>
        <mxCell id="3psPYV6CiN_XDdZ2MXUJ-4" value="EC2" style="text;strokeColor=none;align=center;fillColor=none;html=1;verticalAlign=middle;whiteSpace=wrap;rounded=0;" vertex="1" parent="3psPYV6CiN_XDdZ2MXUJ-2">
          <mxGeometry x="9" y="78" width="60" height="30" as="geometry" />
        </mxCell>
        <mxCell id="3psPYV6CiN_XDdZ2MXUJ-27" style="edgeStyle=orthogonalEdgeStyle;rounded=0;orthogonalLoop=1;jettySize=auto;html=1;strokeWidth=2;" edge="1" parent="3psPYV6CiN_XDdZ2MXUJ-2" target="3psPYV6CiN_XDdZ2MXUJ-1">
          <mxGeometry relative="1" as="geometry">
            <mxPoint x="40" as="sourcePoint" />
            <mxPoint x="153" as="targetPoint" />
          </mxGeometry>
        </mxCell>
        <mxCell id="3psPYV6CiN_XDdZ2MXUJ-5" value="DTH" style="text;strokeColor=none;align=center;fillColor=none;html=1;verticalAlign=middle;whiteSpace=wrap;rounded=0;" vertex="1" parent="1">
          <mxGeometry x="670" y="548" width="60" height="30" as="geometry" />
        </mxCell>
        <mxCell id="3psPYV6CiN_XDdZ2MXUJ-6" value="Request&lt;br&gt;Processor&lt;br&gt;" style="outlineConnect=0;fontColor=#232F3E;gradientColor=none;fillColor=#D05C17;strokeColor=none;dashed=0;verticalLabelPosition=bottom;verticalAlign=top;align=center;html=1;fontSize=12;fontStyle=0;aspect=fixed;pointerEvents=1;shape=mxgraph.aws4.lambda_function;labelBackgroundColor=#ffffff;spacingTop=7;" vertex="1" parent="1">
          <mxGeometry x="1000" y="669.9999999999999" width="78" height="78" as="geometry" />
        </mxCell>
      </root>
    </mxGraphModel>
  </diagram>
  <diagram id="k95iMM1xZGhzSnXwBJ4J" name="第 5 页">
    <mxGraphModel dx="1434" dy="794" grid="1" gridSize="10" guides="1" tooltips="1" connect="1" arrows="1" fold="1" page="1" pageScale="1" pageWidth="827" pageHeight="1169" math="0" shadow="0">
      <root>
        <mxCell id="0" />
        <mxCell id="1" parent="0" />
        <mxCell id="Y8lqVOydi6_b86jCLcnj-1" value="" style="whiteSpace=wrap;html=1;" vertex="1" parent="1">
          <mxGeometry y="100" width="1580" height="800" as="geometry" />
        </mxCell>
        <mxCell id="Y8lqVOydi6_b86jCLcnj-2" value="AWS Cloud" style="points=[[0,0],[0.25,0],[0.5,0],[0.75,0],[1,0],[1,0.25],[1,0.5],[1,0.75],[1,1],[0.75,1],[0.5,1],[0.25,1],[0,1],[0,0.75],[0,0.5],[0,0.25]];outlineConnect=0;gradientColor=none;html=1;whiteSpace=wrap;fontSize=12;fontStyle=0;shape=mxgraph.aws4.group;grIcon=mxgraph.aws4.group_aws_cloud_alt;strokeColor=#232F3E;fillColor=none;verticalAlign=top;align=left;spacingLeft=30;fontColor=#232F3E;dashed=0;labelBackgroundColor=none;container=1;pointerEvents=0;collapsible=0;recursiveResize=0;" vertex="1" parent="1">
          <mxGeometry x="920" y="125" width="600" height="757" as="geometry" />
        </mxCell>
        <mxCell id="Y8lqVOydi6_b86jCLcnj-3" value="Amazon S3" style="outlineConnect=0;fontColor=#232F3E;gradientColor=#60A337;gradientDirection=north;fillColor=#277116;strokeColor=#ffffff;dashed=0;verticalLabelPosition=bottom;verticalAlign=top;align=center;html=1;fontSize=12;fontStyle=0;aspect=fixed;shape=mxgraph.aws4.resourceIcon;resIcon=mxgraph.aws4.s3;labelBackgroundColor=none;" vertex="1" parent="Y8lqVOydi6_b86jCLcnj-2">
          <mxGeometry x="380" y="326" width="78" height="78" as="geometry" />
        </mxCell>
        <mxCell id="Y8lqVOydi6_b86jCLcnj-4" value="Amazon API&lt;br&gt;Gateway&lt;br&gt;" style="outlineConnect=0;fontColor=#232F3E;gradientColor=#945DF2;gradientDirection=north;fillColor=#5A30B5;strokeColor=#ffffff;dashed=0;verticalLabelPosition=bottom;verticalAlign=top;align=center;html=1;fontSize=12;fontStyle=0;aspect=fixed;shape=mxgraph.aws4.resourceIcon;resIcon=mxgraph.aws4.api_gateway;labelBackgroundColor=none;" vertex="1" parent="Y8lqVOydi6_b86jCLcnj-2">
          <mxGeometry x="169" y="164.99999999999994" width="78" height="78" as="geometry" />
        </mxCell>
        <mxCell id="Y8lqVOydi6_b86jCLcnj-5" value="Request&lt;br&gt;Processor&lt;br&gt;" style="outlineConnect=0;fontColor=#232F3E;gradientColor=none;fillColor=#D05C17;strokeColor=none;dashed=0;verticalLabelPosition=bottom;verticalAlign=top;align=center;html=1;fontSize=12;fontStyle=0;aspect=fixed;pointerEvents=1;shape=mxgraph.aws4.lambda_function;labelBackgroundColor=#ffffff;spacingTop=7;" vertex="1" parent="Y8lqVOydi6_b86jCLcnj-2">
          <mxGeometry x="360" y="164.9999999999999" width="78" height="78" as="geometry" />
        </mxCell>
        <mxCell id="Y8lqVOydi6_b86jCLcnj-6" style="edgeStyle=orthogonalEdgeStyle;rounded=0;orthogonalLoop=1;jettySize=auto;html=1;strokeWidth=2;" edge="1" parent="Y8lqVOydi6_b86jCLcnj-2" source="Y8lqVOydi6_b86jCLcnj-4" target="Y8lqVOydi6_b86jCLcnj-5">
          <mxGeometry relative="1" as="geometry" />
        </mxCell>
        <mxCell id="Y8lqVOydi6_b86jCLcnj-8" value="" style="sketch=0;points=[[0,0,0],[0.25,0,0],[0.5,0,0],[0.75,0,0],[1,0,0],[0,1,0],[0.25,1,0],[0.5,1,0],[0.75,1,0],[1,1,0],[0,0.25,0],[0,0.5,0],[0,0.75,0],[1,0.25,0],[1,0.5,0],[1,0.75,0]];outlineConnect=0;fontColor=#232F3E;fillColor=#8C4FFF;strokeColor=#ffffff;dashed=0;verticalLabelPosition=bottom;verticalAlign=top;align=center;html=1;fontSize=12;fontStyle=0;aspect=fixed;shape=mxgraph.aws4.resourceIcon;resIcon=mxgraph.aws4.route_53;" vertex="1" parent="Y8lqVOydi6_b86jCLcnj-2">
          <mxGeometry x="50" y="55" width="78" height="78" as="geometry" />
        </mxCell>
        <mxCell id="Y8lqVOydi6_b86jCLcnj-9" value="" style="edgeStyle=orthogonalEdgeStyle;rounded=0;orthogonalLoop=1;jettySize=auto;html=1;strokeWidth=2;" edge="1" parent="Y8lqVOydi6_b86jCLcnj-2" source="Y8lqVOydi6_b86jCLcnj-10" target="Y8lqVOydi6_b86jCLcnj-3">
          <mxGeometry relative="1" as="geometry">
            <mxPoint x="207" y="344" as="targetPoint" />
          </mxGeometry>
        </mxCell>
        <mxCell id="Y8lqVOydi6_b86jCLcnj-10" value="" style="sketch=0;points=[[0,0,0],[0.25,0,0],[0.5,0,0],[0.75,0,0],[1,0,0],[0,1,0],[0.25,1,0],[0.5,1,0],[0.75,1,0],[1,1,0],[0,0.25,0],[0,0.5,0],[0,0.75,0],[1,0.25,0],[1,0.5,0],[1,0.75,0]];outlineConnect=0;fontColor=#232F3E;fillColor=#8C4FFF;strokeColor=#ffffff;dashed=0;verticalLabelPosition=bottom;verticalAlign=top;align=center;html=1;fontSize=12;fontStyle=0;aspect=fixed;shape=mxgraph.aws4.resourceIcon;resIcon=mxgraph.aws4.cloudfront;" vertex="1" parent="Y8lqVOydi6_b86jCLcnj-2">
          <mxGeometry x="169" y="326" width="78" height="78" as="geometry" />
        </mxCell>
        <mxCell id="Y8lqVOydi6_b86jCLcnj-11" value="CloudFront" style="text;strokeColor=none;align=center;fillColor=none;html=1;verticalAlign=middle;whiteSpace=wrap;rounded=0;" vertex="1" parent="Y8lqVOydi6_b86jCLcnj-2">
          <mxGeometry x="178" y="405" width="60" height="30" as="geometry" />
        </mxCell>
        <mxCell id="Y8lqVOydi6_b86jCLcnj-12" value="" style="edgeStyle=orthogonalEdgeStyle;rounded=0;orthogonalLoop=1;jettySize=auto;html=1;dashed=1;dashPattern=8 8;exitX=0.5;exitY=1;exitDx=0;exitDy=0;exitPerimeter=0;" edge="1" parent="Y8lqVOydi6_b86jCLcnj-2" source="Y8lqVOydi6_b86jCLcnj-8" target="Y8lqVOydi6_b86jCLcnj-10">
          <mxGeometry relative="1" as="geometry">
            <mxPoint x="99" y="143" as="sourcePoint" />
            <mxPoint x="-175" y="225" as="targetPoint" />
            <Array as="points">
              <mxPoint x="89" y="143" />
              <mxPoint x="90" y="143" />
              <mxPoint x="90" y="362" />
            </Array>
          </mxGeometry>
        </mxCell>
        <mxCell id="Y8lqVOydi6_b86jCLcnj-13" value="2" style="rounded=1;whiteSpace=wrap;html=1;fillColor=#007CBD;strokeColor=none;fontColor=#FFFFFF;fontStyle=1;fontSize=22;labelBackgroundColor=none;" vertex="1" parent="Y8lqVOydi6_b86jCLcnj-2">
          <mxGeometry x="40" y="235" width="40" height="38" as="geometry" />
        </mxCell>
        <mxCell id="Y8lqVOydi6_b86jCLcnj-14" value="" style="edgeStyle=elbowEdgeStyle;rounded=0;orthogonalLoop=1;jettySize=auto;html=1;endArrow=open;endFill=0;strokeColor=#545B64;strokeWidth=2;fontSize=14;entryX=0.823;entryY=0.525;entryDx=0;entryDy=0;entryPerimeter=0;" edge="1" parent="Y8lqVOydi6_b86jCLcnj-2" target="Y8lqVOydi6_b86jCLcnj-1">
          <mxGeometry relative="1" as="geometry">
            <mxPoint x="360" y="400.5" as="targetPoint" />
            <mxPoint x="-50" y="439.5" as="sourcePoint" />
            <Array as="points">
              <mxPoint x="280" y="439.5" />
            </Array>
          </mxGeometry>
        </mxCell>
        <mxCell id="Y8lqVOydi6_b86jCLcnj-15" value="海外用户" style="text;strokeColor=none;align=center;fillColor=none;html=1;verticalAlign=middle;whiteSpace=wrap;rounded=0;" vertex="1" parent="Y8lqVOydi6_b86jCLcnj-2">
          <mxGeometry x="90" y="235" width="60" height="30" as="geometry" />
        </mxCell>
        <mxCell id="Y8lqVOydi6_b86jCLcnj-16" value="" style="edgeStyle=elbowEdgeStyle;rounded=0;orthogonalLoop=1;jettySize=auto;html=1;endArrow=open;endFill=0;strokeColor=#545B64;strokeWidth=2;fontSize=14;entryX=0;entryY=0.5;entryDx=0;entryDy=0;entryPerimeter=0;exitX=1.014;exitY=0.15;exitDx=0;exitDy=0;exitPerimeter=0;" edge="1" parent="Y8lqVOydi6_b86jCLcnj-2" source="Y8lqVOydi6_b86jCLcnj-24">
          <mxGeometry relative="1" as="geometry">
            <mxPoint x="-380" y="255" as="sourcePoint" />
            <mxPoint x="169" y="379" as="targetPoint" />
            <Array as="points">
              <mxPoint x="20" y="245" />
            </Array>
          </mxGeometry>
        </mxCell>
        <mxCell id="Y8lqVOydi6_b86jCLcnj-17" value="" style="group" vertex="1" connectable="0" parent="Y8lqVOydi6_b86jCLcnj-2">
          <mxGeometry x="375" y="561" width="78" height="108" as="geometry" />
        </mxCell>
        <mxCell id="Y8lqVOydi6_b86jCLcnj-18" value="" style="sketch=0;points=[[0,0,0],[0.25,0,0],[0.5,0,0],[0.75,0,0],[1,0,0],[0,1,0],[0.25,1,0],[0.5,1,0],[0.75,1,0],[1,1,0],[0,0.25,0],[0,0.5,0],[0,0.75,0],[1,0.25,0],[1,0.5,0],[1,0.75,0]];outlineConnect=0;fontColor=#232F3E;fillColor=#01A88D;strokeColor=#ffffff;dashed=0;verticalLabelPosition=bottom;verticalAlign=top;align=center;html=1;fontSize=12;fontStyle=0;aspect=fixed;shape=mxgraph.aws4.resourceIcon;resIcon=mxgraph.aws4.bedrock;" vertex="1" parent="Y8lqVOydi6_b86jCLcnj-17">
          <mxGeometry width="78" height="78" as="geometry" />
        </mxCell>
        <mxCell id="Y8lqVOydi6_b86jCLcnj-19" value="Bedrock" style="text;strokeColor=none;align=center;fillColor=none;html=1;verticalAlign=middle;whiteSpace=wrap;rounded=0;" vertex="1" parent="Y8lqVOydi6_b86jCLcnj-17">
          <mxGeometry x="9" y="78" width="60" height="30" as="geometry" />
        </mxCell>
        <mxCell id="Y8lqVOydi6_b86jCLcnj-20" value="" style="group" vertex="1" connectable="0" parent="Y8lqVOydi6_b86jCLcnj-2">
          <mxGeometry x="180" y="561" width="78" height="108" as="geometry" />
        </mxCell>
        <mxCell id="Y8lqVOydi6_b86jCLcnj-21" value="" style="sketch=0;points=[[0,0,0],[0.25,0,0],[0.5,0,0],[0.75,0,0],[1,0,0],[0,1,0],[0.25,1,0],[0.5,1,0],[0.75,1,0],[1,1,0],[0,0.25,0],[0,0.5,0],[0,0.75,0],[1,0.25,0],[1,0.5,0],[1,0.75,0]];outlineConnect=0;fontColor=#232F3E;fillColor=#ED7100;strokeColor=#ffffff;dashed=0;verticalLabelPosition=bottom;verticalAlign=top;align=center;html=1;fontSize=12;fontStyle=0;aspect=fixed;shape=mxgraph.aws4.resourceIcon;resIcon=mxgraph.aws4.ec2;" vertex="1" parent="Y8lqVOydi6_b86jCLcnj-20">
          <mxGeometry width="78" height="78" as="geometry" />
        </mxCell>
        <mxCell id="Y8lqVOydi6_b86jCLcnj-22" value="EC2" style="text;strokeColor=none;align=center;fillColor=none;html=1;verticalAlign=middle;whiteSpace=wrap;rounded=0;" vertex="1" parent="Y8lqVOydi6_b86jCLcnj-20">
          <mxGeometry x="9" y="78" width="60" height="30" as="geometry" />
        </mxCell>
        <mxCell id="aXk32I4CH8sliI9MbaOT-3" value="" style="edgeStyle=elbowEdgeStyle;rounded=0;orthogonalLoop=1;jettySize=auto;html=1;endArrow=open;endFill=0;strokeColor=#545B64;strokeWidth=2;fontSize=14;" edge="1" parent="Y8lqVOydi6_b86jCLcnj-2">
          <mxGeometry relative="1" as="geometry">
            <mxPoint x="380" y="605" as="targetPoint" />
            <mxPoint x="258" y="605" as="sourcePoint" />
          </mxGeometry>
        </mxCell>
        <mxCell id="Y8lqVOydi6_b86jCLcnj-23" value="" style="edgeStyle=elbowEdgeStyle;rounded=0;orthogonalLoop=1;jettySize=auto;html=1;endArrow=open;endFill=0;strokeColor=#545B64;strokeWidth=2;fontSize=14;" edge="1" parent="1">
          <mxGeometry relative="1" as="geometry">
            <mxPoint x="410" y="710" as="targetPoint" />
            <mxPoint x="190" y="710" as="sourcePoint" />
          </mxGeometry>
        </mxCell>
        <mxCell id="Y8lqVOydi6_b86jCLcnj-24" value="" style="swimlane;fontSize=14;align=center;swimlaneFillColor=#f4f4f4;fillColor=#f4f4f4;startSize=255;container=1;pointerEvents=0;collapsible=0;recursiveResize=0;" vertex="1" parent="1">
          <mxGeometry x="30" y="125" width="160" height="752" as="geometry" />
        </mxCell>
        <mxCell id="Y8lqVOydi6_b86jCLcnj-25" value="" style="sketch=0;outlineConnect=0;fontColor=#232F3E;gradientColor=none;fillColor=#232F3D;strokeColor=none;dashed=0;verticalLabelPosition=bottom;verticalAlign=top;align=center;html=1;fontSize=12;fontStyle=0;aspect=fixed;pointerEvents=1;shape=mxgraph.aws4.authenticated_user;" vertex="1" parent="Y8lqVOydi6_b86jCLcnj-24">
          <mxGeometry x="44" y="550" width="78" height="78" as="geometry" />
        </mxCell>
        <mxCell id="Y8lqVOydi6_b86jCLcnj-26" value="管理员" style="text;strokeColor=none;align=center;fillColor=none;html=1;verticalAlign=middle;whiteSpace=wrap;rounded=0;" vertex="1" parent="Y8lqVOydi6_b86jCLcnj-24">
          <mxGeometry x="49.5" y="628" width="60" height="30" as="geometry" />
        </mxCell>
        <mxCell id="Y8lqVOydi6_b86jCLcnj-27" value="" style="sketch=0;outlineConnect=0;fontColor=#232F3E;gradientColor=none;fillColor=#232F3D;strokeColor=none;dashed=0;verticalLabelPosition=bottom;verticalAlign=top;align=center;html=1;fontSize=12;fontStyle=0;aspect=fixed;pointerEvents=1;shape=mxgraph.aws4.user;" vertex="1" parent="Y8lqVOydi6_b86jCLcnj-24">
          <mxGeometry x="44" y="75" width="78" height="78" as="geometry" />
        </mxCell>
        <mxCell id="Y8lqVOydi6_b86jCLcnj-28" value="海外用户" style="text;strokeColor=none;align=center;fillColor=none;html=1;verticalAlign=middle;whiteSpace=wrap;rounded=0;" vertex="1" parent="Y8lqVOydi6_b86jCLcnj-24">
          <mxGeometry x="53" y="153" width="60" height="30" as="geometry" />
        </mxCell>
        <mxCell id="Y8lqVOydi6_b86jCLcnj-29" value="" style="sketch=0;outlineConnect=0;fontColor=#232F3E;gradientColor=none;fillColor=#232F3D;strokeColor=none;dashed=0;verticalLabelPosition=bottom;verticalAlign=top;align=center;html=1;fontSize=12;fontStyle=0;aspect=fixed;pointerEvents=1;shape=mxgraph.aws4.user;" vertex="1" parent="Y8lqVOydi6_b86jCLcnj-24">
          <mxGeometry x="48" y="390" width="78" height="78" as="geometry" />
        </mxCell>
        <mxCell id="Y8lqVOydi6_b86jCLcnj-30" value="&lt;div&gt;国内用户&lt;/div&gt;&lt;div&gt;C端&lt;br&gt;&lt;/div&gt;" style="text;strokeColor=none;align=center;fillColor=none;html=1;verticalAlign=middle;whiteSpace=wrap;rounded=0;" vertex="1" parent="Y8lqVOydi6_b86jCLcnj-24">
          <mxGeometry x="60" y="470" width="60" height="30" as="geometry" />
        </mxCell>
        <mxCell id="Y8lqVOydi6_b86jCLcnj-31" value="加速" style="swimlane;fontSize=14;align=center;swimlaneFillColor=#f4f4f4;fillColor=#f4f4f4;startSize=30;container=1;pointerEvents=0;collapsible=0;recursiveResize=0;" vertex="1" parent="1">
          <mxGeometry x="662" y="380" width="210" height="497" as="geometry" />
        </mxCell>
        <mxCell id="Y8lqVOydi6_b86jCLcnj-32" value="" style="edgeStyle=elbowEdgeStyle;rounded=0;orthogonalLoop=1;jettySize=auto;html=1;endArrow=open;endFill=0;strokeColor=#545B64;strokeWidth=2;fontSize=14;" edge="1" parent="1">
          <mxGeometry relative="1" as="geometry">
            <mxPoint x="1100" y="726" as="targetPoint" />
            <mxPoint x="872" y="726" as="sourcePoint" />
          </mxGeometry>
        </mxCell>
        <mxCell id="Y8lqVOydi6_b86jCLcnj-33" value="" style="edgeStyle=orthogonalEdgeStyle;rounded=0;orthogonalLoop=1;jettySize=auto;html=1;dashed=1;dashPattern=8 8;exitX=0.25;exitY=1;exitDx=0;exitDy=0;exitPerimeter=0;" edge="1" parent="1" source="Y8lqVOydi6_b86jCLcnj-8">
          <mxGeometry relative="1" as="geometry">
            <mxPoint x="750" y="530" as="targetPoint" />
            <Array as="points">
              <mxPoint x="990" y="300" />
              <mxPoint x="750" y="300" />
              <mxPoint x="750" y="520" />
            </Array>
            <mxPoint x="1038" y="258" as="sourcePoint" />
          </mxGeometry>
        </mxCell>
        <mxCell id="Y8lqVOydi6_b86jCLcnj-34" value="1" style="rounded=1;whiteSpace=wrap;html=1;fillColor=#007CBD;strokeColor=none;fontColor=#FFFFFF;fontStyle=1;fontSize=22;labelBackgroundColor=none;" vertex="1" parent="1">
          <mxGeometry x="850" y="258" width="40" height="38" as="geometry" />
        </mxCell>
        <mxCell id="Y8lqVOydi6_b86jCLcnj-36" value="国内用户" style="text;strokeColor=none;align=center;fillColor=none;html=1;verticalAlign=middle;whiteSpace=wrap;rounded=0;" vertex="1" parent="1">
          <mxGeometry x="840" y="305" width="60" height="30" as="geometry" />
        </mxCell>
        <mxCell id="Y8lqVOydi6_b86jCLcnj-37" value="3" style="rounded=1;whiteSpace=wrap;html=1;fillColor=#007CBD;strokeColor=none;fontColor=#FFFFFF;fontStyle=1;fontSize=22;labelBackgroundColor=none;" vertex="1" parent="1">
          <mxGeometry x="260" y="190" width="40" height="38" as="geometry" />
        </mxCell>
        <mxCell id="Y8lqVOydi6_b86jCLcnj-38" value="4" style="rounded=1;whiteSpace=wrap;html=1;fillColor=#007CBD;strokeColor=none;fontColor=#FFFFFF;fontStyle=1;fontSize=22;labelBackgroundColor=none;" vertex="1" parent="1">
          <mxGeometry x="250" y="510" width="40" height="38" as="geometry" />
        </mxCell>
        <mxCell id="Y8lqVOydi6_b86jCLcnj-39" value="" style="edgeStyle=elbowEdgeStyle;rounded=0;orthogonalLoop=1;jettySize=auto;html=1;endArrow=open;endFill=0;strokeColor=#545B64;strokeWidth=2;fontSize=14;" edge="1" parent="1">
          <mxGeometry relative="1" as="geometry">
            <mxPoint x="410" y="690" as="targetPoint" />
            <mxPoint x="190" y="583.25" as="sourcePoint" />
            <Array as="points">
              <mxPoint x="260" y="640" />
            </Array>
          </mxGeometry>
        </mxCell>
        <mxCell id="Y8lqVOydi6_b86jCLcnj-40" value="宁夏" style="points=[[0,0],[0.25,0],[0.5,0],[0.75,0],[1,0],[1,0.25],[1,0.5],[1,0.75],[1,1],[0.75,1],[0.5,1],[0.25,1],[0,1],[0,0.75],[0,0.5],[0,0.25]];outlineConnect=0;gradientColor=none;html=1;whiteSpace=wrap;fontSize=12;fontStyle=0;container=1;pointerEvents=0;collapsible=0;recursiveResize=0;shape=mxgraph.aws4.group;grIcon=mxgraph.aws4.group_aws_cloud_alt;strokeColor=#232F3E;fillColor=none;verticalAlign=top;align=left;spacingLeft=30;fontColor=#232F3E;dashed=0;" vertex="1" parent="1">
          <mxGeometry x="298" y="580" width="332" height="300" as="geometry" />
        </mxCell>
        <mxCell id="Y8lqVOydi6_b86jCLcnj-43" value="" style="group" vertex="1" connectable="0" parent="1">
          <mxGeometry x="410" y="660" width="78" height="108" as="geometry" />
        </mxCell>
        <mxCell id="Y8lqVOydi6_b86jCLcnj-44" value="" style="sketch=0;points=[[0,0,0],[0.25,0,0],[0.5,0,0],[0.75,0,0],[1,0,0],[0,1,0],[0.25,1,0],[0.5,1,0],[0.75,1,0],[1,1,0],[0,0.25,0],[0,0.5,0],[0,0.75,0],[1,0.25,0],[1,0.5,0],[1,0.75,0]];outlineConnect=0;fontColor=#232F3E;fillColor=#ED7100;strokeColor=#ffffff;dashed=0;verticalLabelPosition=bottom;verticalAlign=top;align=center;html=1;fontSize=12;fontStyle=0;aspect=fixed;shape=mxgraph.aws4.resourceIcon;resIcon=mxgraph.aws4.ec2;direction=west;" vertex="1" parent="Y8lqVOydi6_b86jCLcnj-43">
          <mxGeometry width="78" height="78" as="geometry" />
        </mxCell>
        <mxCell id="Y8lqVOydi6_b86jCLcnj-45" value="&lt;div&gt;EC2 windows&lt;br&gt;&lt;/div&gt;" style="text;strokeColor=none;align=center;fillColor=none;html=1;verticalAlign=middle;whiteSpace=wrap;rounded=0;" vertex="1" parent="Y8lqVOydi6_b86jCLcnj-43">
          <mxGeometry x="9" y="78" width="60" height="30" as="geometry" />
        </mxCell>
        <mxCell id="Y8lqVOydi6_b86jCLcnj-46" value="" style="edgeStyle=elbowEdgeStyle;rounded=0;orthogonalLoop=1;jettySize=auto;html=1;endArrow=open;endFill=0;strokeColor=#545B64;strokeWidth=2;fontSize=14;" edge="1" parent="1" source="Y8lqVOydi6_b86jCLcnj-5">
          <mxGeometry relative="1" as="geometry">
            <mxPoint x="872" y="670.5" as="targetPoint" />
            <Array as="points">
              <mxPoint x="1420" y="430" />
            </Array>
            <mxPoint x="1739.9991128500264" y="329.5" as="sourcePoint" />
          </mxGeometry>
        </mxCell>
        <mxCell id="Y8lqVOydi6_b86jCLcnj-48" value="" style="sketch=0;outlineConnect=0;fontColor=#232F3E;gradientColor=none;fillColor=#232F3D;strokeColor=none;dashed=0;verticalLabelPosition=bottom;verticalAlign=top;align=center;html=1;fontSize=12;fontStyle=0;aspect=fixed;pointerEvents=1;shape=mxgraph.aws4.internet_alt2;" vertex="1" parent="1">
          <mxGeometry x="720" y="600" width="78" height="78" as="geometry" />
        </mxCell>
        <mxCell id="Y8lqVOydi6_b86jCLcnj-49" value="" style="edgeStyle=elbowEdgeStyle;rounded=0;orthogonalLoop=1;jettySize=auto;html=1;endArrow=open;endFill=0;strokeColor=#545B64;strokeWidth=2;fontSize=14;entryX=0.418;entryY=0.56;entryDx=0;entryDy=0;entryPerimeter=0;" edge="1" parent="1" target="Y8lqVOydi6_b86jCLcnj-1">
          <mxGeometry relative="1" as="geometry">
            <mxPoint x="410" y="548" as="targetPoint" />
            <mxPoint x="190" y="548" as="sourcePoint" />
          </mxGeometry>
        </mxCell>
        <mxCell id="aXk32I4CH8sliI9MbaOT-1" value="" style="edgeStyle=elbowEdgeStyle;rounded=0;orthogonalLoop=1;jettySize=auto;html=1;endArrow=open;endFill=0;strokeColor=#545B64;strokeWidth=2;fontSize=14;" edge="1" parent="1">
          <mxGeometry relative="1" as="geometry">
            <mxPoint x="661" y="721" as="targetPoint" />
            <mxPoint x="489" y="720.5" as="sourcePoint" />
          </mxGeometry>
        </mxCell>
        <mxCell id="aXk32I4CH8sliI9MbaOT-2" value="" style="edgeStyle=elbowEdgeStyle;rounded=0;orthogonalLoop=1;jettySize=auto;html=1;endArrow=open;endFill=0;strokeColor=#545B64;strokeWidth=2;fontSize=14;" edge="1" parent="1">
          <mxGeometry relative="1" as="geometry">
            <mxPoint x="489" y="678" as="targetPoint" />
            <Array as="points" />
            <mxPoint x="661" y="678" as="sourcePoint" />
          </mxGeometry>
        </mxCell>
      </root>
    </mxGraphModel>
  </diagram>
</mxfile>
